<svg width="131" height="28" viewBox="0 0 131 28" fill="none" xmlns="http://www.w3.org/2000/svg">
<g clip-path="url(#clip0_2132_117)">
<path d="M14.2672 27.7325C21.9742 27.7325 28.222 21.5926 28.222 14.0186C28.222 6.44462 21.9742 0.304688 14.2672 0.304688C6.56026 0.304688 0.3125 6.44462 0.3125 14.0186C0.3125 21.5926 6.56026 27.7325 14.2672 27.7325Z" fill="#F9C95F"/>
<path fill-rule="evenodd" clip-rule="evenodd" d="M22.4371 19.3421C23.6257 18.1713 24.4802 16.714 24.9151 15.1163C25.3499 13.5186 25.3497 11.8366 24.9146 10.239C22.9692 9.73182 20.9109 9.83829 19.0304 10.5434C18.9181 9.00836 18.4245 7.52382 17.5931 6.21966C16.7617 4.91551 15.6177 3.8315 14.2612 3.0625C12.9053 3.833 11.7619 4.9178 10.9306 6.22227C10.0993 7.52674 9.60535 9.01128 9.49187 10.5464C7.61074 9.84457 5.55341 9.73816 3.60771 10.2421C3.17258 11.8397 3.17243 13.5216 3.60727 15.1193C4.0421 16.717 4.89665 18.1743 6.08525 19.3451C6.98468 20.2277 8.20378 20.7235 9.47484 20.7235C10.7459 20.7235 11.965 20.2277 12.8645 19.3451C13.1104 19.1036 13.3285 18.8362 13.5148 18.5477C12.2327 24.1477 8.30575 23.6303 8.30575 23.6303L8.11683 24.3729H20.4241L20.2352 23.6303C20.2352 23.6303 16.3175 24.1447 15.0292 18.569C15.2091 18.8444 15.4166 19.1013 15.6486 19.336C16.0937 19.7748 16.6225 20.123 17.2047 20.3609C17.7869 20.5987 18.4111 20.7214 19.0415 20.7219C19.672 20.7225 20.2964 20.6009 20.8791 20.3642C21.4617 20.1274 21.9911 19.7801 22.4371 19.3421Z" fill="black"/>
<path fill-rule="evenodd" clip-rule="evenodd" d="M18.3432 12.813L15.2804 12.7369L14.2615 9.90039L13.2395 12.7369L10.1797 12.813L12.6108 14.6422L11.7375 17.5274L14.2615 15.823L16.7824 17.5274L15.9121 14.6422L18.3432 12.813Z" fill="#F9C95F"/>
<path d="M57.7903 23.9742H53.6961L51.5748 12.5702L45.8331 23.1342H45.0681L39.3233 12.5429L37.205 23.9742H33.1016L36.694 3.7168H38.5212L45.4397 16.3046L52.3923 3.7168H54.1886L57.7903 23.9742Z" fill="white"/>
<path d="M72.0439 9.21284H75.8717V23.9737H72.0439V22.4885C70.7187 23.6811 68.9816 24.334 67.1848 24.3146C63.1774 24.3146 59.8203 21.335 59.8203 16.5872C59.8203 11.8394 63.1774 8.85979 67.1848 8.85979C68.9816 8.84041 70.7187 9.49323 72.0439 10.6859V9.21284ZM72.0439 19.5607V13.6563C70.9536 12.6391 69.5205 12.052 68.0179 12.0068C65.6611 12.0068 63.6295 13.7446 63.6016 16.6085C63.6295 19.4754 65.6611 21.2102 68.0179 21.2102C69.5226 21.1609 70.9559 20.5682 72.0439 19.5454V19.5607Z" fill="white"/>
<path d="M94.2201 23.5385V23.9737H89.9216L84.0374 16.1611V23.9737H80.2344V9.21289H84.0312V14.9437C86.8185 14.6394 88.8036 12.2229 89.3611 9.21289H93.2508C92.7491 12.4542 91.0396 14.9163 88.6271 16.2768L94.2201 23.5385Z" fill="white"/>
<path d="M107.385 9.21284H111.213V23.9737H107.385V22.4885C106.06 23.6811 104.323 24.334 102.526 24.3146C98.5212 24.3146 95.1641 21.335 95.1641 16.5872C95.1641 11.8394 98.5212 8.85979 102.526 8.85979C104.323 8.84041 106.06 9.49323 107.385 10.6859V9.21284ZM107.385 19.5607V13.6563C106.295 12.6387 104.862 12.0514 103.359 12.0068C101.005 12.0068 98.9733 13.7446 98.9423 16.6085C98.9733 19.4754 101.005 21.2102 103.359 21.2102C104.864 21.1615 106.297 20.5687 107.385 19.5454V19.5607Z" fill="white"/>
<path d="M114.516 16.5926C114.516 12.0791 118.136 8.86523 122.673 8.86523C127.21 8.86523 130.831 12.0791 130.831 16.5926C130.831 21.1061 127.207 24.3139 122.673 24.3139C118.139 24.3139 114.516 21.0787 114.516 16.5926ZM127.09 16.5926C127.106 16.0115 127.004 15.433 126.789 14.8912C126.575 14.3493 126.252 13.855 125.841 13.4371C125.43 13.0193 124.938 12.6864 124.394 12.4579C123.85 12.2294 123.265 12.1099 122.673 12.1065C120.289 12.1065 118.285 14.0178 118.285 16.5926C118.285 19.1674 120.289 21.0787 122.673 21.0787C123.265 21.0753 123.85 20.9558 124.394 20.7273C124.938 20.4988 125.43 20.1659 125.841 19.748C126.252 19.3302 126.575 18.8359 126.789 18.294C127.004 17.7522 127.106 17.1737 127.09 16.5926Z" fill="white"/>
</g>
<defs>
<clipPath id="clip0_2132_117">
<rect width="131" height="28" fill="white"/>
</clipPath>
</defs>
</svg>
