<svg width="765" height="195" viewBox="0 0 765 195" fill="none" xmlns="http://www.w3.org/2000/svg">
<path d="M46.2 125.71H74.36L60.28 50.6904L46.2 125.71ZM49.06 167.29V189.51H0V167.29H16.06L46.42 5.15039H73.92L104.5 167.29H120.56V189.51H71.5V167.29H82.06L78.54 147.93H42.02L38.5 167.29H49.06Z" fill="#FF5555"/>
<path d="M204.283 0.419922C192.403 0.419922 182.796 5.99325 175.463 17.1399C168.863 26.8199 165.562 37.9666 165.562 50.5799C165.562 63.6333 170.989 79.3266 181.843 97.6599C185.949 104.7 197.169 121.053 215.503 146.72C229.729 166.813 239.189 182.653 243.882 194.24C248.576 182.653 258.036 166.813 272.263 146.72C290.596 121.053 301.816 104.7 305.923 97.6599C316.776 79.3266 322.203 63.6333 322.203 50.5799C322.203 37.9666 318.903 26.8199 312.303 17.1399C304.969 5.99325 295.363 0.419922 283.483 0.419922C271.749 0.419922 262.289 5.77325 255.103 16.4799C248.649 25.8666 245.423 36.7199 245.423 49.0399H242.123C242.123 36.7199 238.969 25.8666 232.663 16.4799C225.476 5.77325 216.016 0.419922 204.283 0.419922Z" fill="#FF5555"/>
<path d="M442.203 169.49H459.143V25.1697H442.203V4.92969H493.463V25.1697H479.163V95.3497L524.263 25.1697H506.883V4.92969H563.203V25.1697H547.143L510.403 82.1497L547.803 169.49H563.203V189.73H506.883V169.49H524.923L496.763 103.49L479.163 130.77V169.49H493.463V189.73H442.203V169.49Z" fill="#FF5555"/>
<path d="M646.923 0.419922C635.043 0.419922 625.436 5.99325 618.103 17.1399C611.503 26.8199 608.203 37.9666 608.203 50.5799C608.203 63.6333 613.63 79.3266 624.483 97.6599C628.59 104.7 639.81 121.053 658.143 146.72C672.37 166.813 681.83 182.653 686.523 194.24C691.216 182.653 700.676 166.813 714.903 146.72C733.236 121.053 744.456 104.7 748.563 97.6599C759.416 79.3266 764.843 63.6333 764.843 50.5799C764.843 37.9666 761.543 26.8199 754.943 17.1399C747.61 5.99325 738.003 0.419922 726.123 0.419922C714.39 0.419922 704.93 5.77325 697.743 16.4799C691.29 25.8666 688.063 36.7199 688.063 49.0399H684.763C684.763 36.7199 681.61 25.8666 675.303 16.4799C668.116 5.77325 658.656 0.419922 646.923 0.419922Z" fill="#FF5555"/>
</svg>
