<svg width="2229" height="195" viewBox="0 0 2229 195" fill="none" xmlns="http://www.w3.org/2000/svg">
<path d="M447.262 112.329H447.042C446.748 112.916 446.602 107.709 446.602 96.7094C446.602 70.896 450.122 50.1427 457.162 34.4494C467.135 12.8894 483.488 2.10938 506.222 2.10938C517.368 2.10938 527.708 5.11604 537.242 11.1294C546.335 16.996 553.742 24.916 559.462 34.8894L539.002 47.2094C531.082 33.276 520.155 26.3094 506.222 26.3094C488.035 26.3094 476.742 39.876 472.342 67.0094C482.462 58.0627 493.682 53.5894 506.002 53.5894C524.188 53.5894 539.002 61.1427 550.442 76.2494C560.708 89.8894 565.842 106.169 565.842 125.089C565.842 142.689 560.342 158.236 549.342 171.729C537.608 185.956 523.162 193.069 506.002 193.069C497.495 193.069 488.622 190.283 479.382 184.709C469.555 178.843 461.708 168.063 455.842 152.369C451.295 140.196 448.435 126.849 447.262 112.329ZM506.002 169.089C516.562 169.089 525.362 164.249 532.402 154.569C539.002 145.769 542.302 135.943 542.302 125.089C542.302 112.916 539.295 102.356 533.282 93.4094C526.535 82.996 517.442 77.7894 506.002 77.7894C497.642 77.7894 490.088 81.8227 483.342 89.8894C477.768 96.636 473.662 104.556 471.022 113.649C472.342 127.143 475.275 138.729 479.822 148.409C486.275 162.196 495.002 169.089 506.002 169.089Z" fill="#FF5555"/>
<path d="M649.564 0.679688C637.684 0.679688 628.077 6.25305 620.744 17.3997C614.144 27.0797 610.844 38.2264 610.844 50.8397C610.844 63.8931 616.27 79.5864 627.124 97.9197C631.23 104.96 642.45 121.313 660.784 146.98C675.01 167.073 684.47 182.913 689.164 194.5C693.857 182.913 703.317 167.073 717.544 146.98C735.877 121.313 747.097 104.96 751.204 97.9197C762.057 79.5864 767.484 63.8931 767.484 50.8397C767.484 38.2264 764.184 27.0797 757.584 17.3997C750.25 6.25305 740.644 0.679688 728.764 0.679688C717.03 0.679688 707.57 6.03305 700.384 16.7397C693.93 26.1264 690.704 36.9797 690.704 49.2997H687.404C687.404 36.9797 684.25 26.1264 677.944 16.7397C670.757 6.03305 661.297 0.679688 649.564 0.679688Z" fill="#FF5555"/>
<path d="M60.28 191.09C46.2 191.09 33.5867 186.25 22.44 176.57C12.32 167.77 4.84 156.33 0 142.25L22.44 134.33C25.52 143.57 30.14 151.123 36.3 156.99C43.34 163.737 51.3333 167.11 60.28 167.11C71.4267 167.11 81.0333 162.71 89.1 153.91C97.1667 145.11 101.2 135.137 101.2 123.99C101.2 112.99 97.7533 104.043 90.86 97.1498C83.9667 90.2565 74.9467 86.8098 63.8 86.8098C58.6667 86.8098 54.6333 87.4698 51.7 88.7898C48.7667 90.1098 45.2467 92.6765 41.14 96.4898L24.2 79.7698L78.98 28.2898H26.4V51.8298H2.64V4.08984H122.98V19.2698L76.12 63.7099C90.9333 66.4965 102.74 73.4632 111.54 84.6098C120.487 95.6098 124.96 108.737 124.96 123.99C124.96 141.737 118.58 157.357 105.82 170.85C93.06 184.343 77.88 191.09 60.28 191.09Z" fill="#FF5555"/>
<path d="M208.681 0.679688C196.801 0.679688 187.194 6.25302 179.861 17.3997C173.261 27.0797 169.961 38.2264 169.961 50.8397C169.961 63.893 175.388 79.5864 186.241 97.9197C190.348 104.96 201.568 121.313 219.901 146.98C234.128 167.073 243.588 182.913 248.281 194.5C252.974 182.913 262.434 167.073 276.661 146.98C294.994 121.313 306.214 104.96 310.321 97.9197C321.174 79.5864 326.601 63.893 326.601 50.8397C326.601 38.2264 323.301 27.0797 316.701 17.3997C309.368 6.25302 299.761 0.679688 287.881 0.679688C276.148 0.679688 266.688 6.03302 259.501 16.7397C253.048 26.1264 249.821 36.9797 249.821 49.2997H246.521C246.521 36.9797 243.368 26.1264 237.061 16.7397C229.874 6.03302 220.414 0.679688 208.681 0.679688Z" fill="#FF5555"/>
<path d="M1431.76 189.549H1329.68V163.589H1368.62V31.1494H1329.68V5.18937H1393.7V163.589H1431.76V189.549Z" fill="#FF5555"/>
<path d="M1463.31 129.929V64.5894C1463.31 47.576 1469.17 32.9094 1480.91 20.5894C1492.64 8.26937 1506.94 2.10938 1523.81 2.10938C1540.67 2.10938 1554.97 8.26937 1566.71 20.5894C1578.44 32.9094 1584.31 47.576 1584.31 64.5894V129.929C1584.31 146.943 1578.44 161.756 1566.71 174.369C1554.97 186.836 1540.67 193.069 1523.81 193.069C1506.94 193.069 1492.64 186.836 1480.91 174.369C1469.17 161.756 1463.31 146.943 1463.31 129.929ZM1488.83 64.5894V129.929C1488.83 139.903 1492.2 148.629 1498.95 156.109C1505.84 163.443 1514.13 167.109 1523.81 167.109C1533.49 167.109 1541.7 163.369 1548.45 155.889C1555.34 148.409 1558.79 139.756 1558.79 129.929V64.5894C1558.79 54.7627 1555.34 46.256 1548.45 39.0694C1541.7 31.8827 1533.49 28.2894 1523.81 28.2894C1514.13 28.2894 1505.84 31.8827 1498.95 39.0694C1492.2 46.256 1488.83 54.7627 1488.83 64.5894Z" fill="#FF5555"/>
<path d="M1668.02 0.679688C1656.14 0.679688 1646.54 6.25305 1639.2 17.3997C1632.6 27.0797 1629.3 38.2264 1629.3 50.8397C1629.3 63.8931 1634.73 79.5864 1645.58 97.9197C1649.69 104.96 1660.91 121.313 1679.24 146.98C1693.47 167.073 1702.93 182.913 1707.62 194.5C1712.32 182.913 1721.78 167.073 1736 146.98C1754.34 121.313 1765.56 104.96 1769.66 97.9197C1780.52 79.5864 1785.94 63.8931 1785.94 50.8397C1785.94 38.2264 1782.64 27.0797 1776.04 17.3997C1768.71 6.25305 1759.1 0.679688 1747.22 0.679688C1735.49 0.679688 1726.03 6.03305 1718.84 16.7397C1712.39 26.1264 1709.16 36.9797 1709.16 49.2997H1705.86C1705.86 36.9797 1702.71 26.1264 1696.4 16.7397C1689.22 6.03305 1679.76 0.679688 1668.02 0.679688Z" fill="#FF5555"/>
<path d="M982.297 123.11C972.03 131.323 960.443 135.43 947.537 135.43C930.23 135.43 915.783 128.61 904.197 114.97C893.05 101.77 887.477 86.4434 887.477 68.9901C887.477 51.3901 893.05 36.0634 904.197 23.0101C915.783 9.22341 930.23 2.33008 947.537 2.33008C968.95 2.33008 985.01 13.4034 995.717 35.5501C1003.93 52.7101 1008.04 73.3167 1008.04 97.3701C1008.04 122.597 1004 143.497 995.937 160.07C985.377 181.923 968.803 192.85 946.217 192.85C924.217 192.85 906.763 181.557 893.857 158.97L914.537 146.87C922.75 161.39 933.31 168.65 946.217 168.65C965.43 168.65 977.457 153.47 982.297 123.11ZM947.537 26.5301C936.977 26.5301 928.177 31.0767 921.137 40.1701C914.537 48.5301 911.237 58.1367 911.237 68.9901C911.237 79.8434 914.537 89.4501 921.137 97.8101C928.177 106.903 936.977 111.45 947.537 111.45C956.483 111.45 964.257 108.003 970.857 101.11C976.723 94.9501 980.757 87.2501 982.957 78.0101C978.703 43.6901 966.897 26.5301 947.537 26.5301Z" fill="#FF5555"/>
<path d="M1091.76 0.679688C1079.88 0.679688 1070.27 6.25302 1062.94 17.3997C1056.34 27.0797 1053.04 38.2264 1053.04 50.8397C1053.04 63.893 1058.47 79.5863 1069.32 97.9197C1073.43 104.96 1084.65 121.313 1102.98 146.98C1117.21 167.073 1126.67 182.913 1131.36 194.5C1136.05 182.913 1145.51 167.073 1159.74 146.98C1178.07 121.313 1189.29 104.96 1193.4 97.9197C1204.25 79.5863 1209.68 63.893 1209.68 50.8397C1209.68 38.2264 1206.38 27.0797 1199.78 17.3997C1192.45 6.25302 1182.84 0.679688 1170.96 0.679688C1159.23 0.679688 1149.77 6.03302 1142.58 16.7397C1136.13 26.1264 1132.9 36.9797 1132.9 49.2997H1129.6C1129.6 36.9797 1126.45 26.1264 1120.14 16.7397C1112.95 6.03302 1103.49 0.679688 1091.76 0.679688Z" fill="#FF5555"/>
<path d="M1940.49 111.229C1949.43 112.256 1958.38 116.363 1967.33 123.549C1972.9 127.949 1980.01 134.989 1988.67 144.669V45.8894C1988.67 40.6094 1986.1 35.8427 1980.97 31.5894C1975.98 27.336 1970.55 25.2094 1964.69 25.2094C1958.82 25.2094 1953.32 27.336 1948.19 31.5894C1943.05 35.8427 1940.49 40.6094 1940.49 45.8894V111.229ZM1977.89 165.789L1949.51 138.069C1947.16 135.723 1944.15 134.256 1940.49 133.669V149.509C1940.49 154.643 1943.05 159.336 1948.19 163.589C1953.32 167.843 1958.82 169.969 1964.69 169.969C1969.23 169.969 1973.63 168.576 1977.89 165.789ZM2026.51 189.109C2017.85 189.109 2011.62 188.743 2007.81 188.009C2003.41 186.983 1999.15 184.929 1995.05 181.849C1985.81 189.329 1975.69 193.069 1964.69 193.069C1952.81 193.069 1942.17 188.816 1932.79 180.309C1922.96 171.509 1918.05 161.243 1918.05 149.509V133.229H1905.95V112.109C1906.39 111.963 1910.42 111.669 1918.05 111.229V45.8894C1918.05 34.0094 1922.96 23.6694 1932.79 14.8694C1942.17 6.36271 1952.81 2.10938 1964.69 2.10938C1976.57 2.10938 1987.27 6.43604 1996.81 15.0894C2006.49 23.7427 2011.33 34.0094 2011.33 45.8894V149.509C2011.33 154.496 2010.3 159.409 2008.25 164.249C2010.3 165.569 2012.21 166.449 2013.97 166.889H2026.51V189.109Z" fill="#FF5555"/>
<path d="M2110.23 0.679688C2098.35 0.679688 2088.74 6.25302 2081.41 17.3997C2074.81 27.0797 2071.51 38.2264 2071.51 50.8397C2071.51 63.893 2076.93 79.5863 2087.79 97.9197C2091.89 104.96 2103.11 121.313 2121.45 146.98C2135.67 167.073 2145.13 182.913 2149.83 194.5C2154.52 182.913 2163.98 167.073 2178.21 146.98C2196.54 121.313 2207.76 104.96 2211.87 97.9197C2222.72 79.5863 2228.15 63.893 2228.15 50.8397C2228.15 38.2264 2224.85 27.0797 2218.25 17.3997C2210.91 6.25302 2201.31 0.679688 2189.43 0.679688C2177.69 0.679688 2168.23 6.03302 2161.05 16.7397C2154.59 26.1264 2151.37 36.9797 2151.37 49.2997H2148.07C2148.07 36.9797 2144.91 26.1264 2138.61 16.7397C2131.42 6.03302 2121.96 0.679688 2110.23 0.679688Z" fill="#FF5555"/>
</svg>
