<svg width="1676" height="202" viewBox="0 0 1676 202" fill="none" xmlns="http://www.w3.org/2000/svg">
<path d="M58.08 168.781H73.04V149.201H0V130.061L76.34 9.06055H96.58V125.001H119.24V149.201H96.58V168.781H107.8V192.761H58.08V168.781ZM31.46 125.001H73.04V59.0005L31.46 125.001Z" fill="#FF5555"/>
<path d="M202.962 4C191.082 4 181.476 9.57333 174.142 20.72C167.542 30.4 164.242 41.5467 164.242 54.16C164.242 67.2133 169.669 82.9067 180.522 101.24C184.629 108.28 195.849 124.633 214.182 150.3C228.409 170.393 237.869 186.233 242.562 197.82C247.256 186.233 256.716 170.393 270.942 150.3C289.276 124.633 300.496 108.28 304.602 101.24C315.456 82.9067 320.882 67.2133 320.882 54.16C320.882 41.5467 317.582 30.4 310.982 20.72C303.649 9.57333 294.042 4 282.162 4C270.429 4 260.969 9.35333 253.782 20.06C247.329 29.4467 244.102 40.3 244.102 52.62H240.802C240.802 40.3 237.649 29.4467 231.342 20.06C224.156 9.35333 214.696 4 202.962 4Z" fill="#FF5555"/>
<path d="M512.963 168.73H527.923V149.15H454.883V130.01L531.223 9.00977H551.463V124.95H574.123V149.15H551.463V168.73H562.683V192.71H512.963V168.73ZM486.343 124.95H527.923V58.9498L486.343 124.95Z" fill="#FF5555"/>
<path d="M619.125 100.86C645.232 77.8332 669.285 45.4932 691.285 3.83984C713.285 45.4932 737.338 77.8332 763.445 100.86C737.338 123.887 713.285 156.227 691.285 197.88C669.285 156.227 645.232 123.887 619.125 100.86Z" fill="#FF5555"/>
<path d="M941.518 168.65H956.478V149.07H883.438V129.93L959.778 8.92969H980.018V124.87H1002.68V149.07H980.018V168.65H991.238V192.63H941.518V168.65ZM914.897 124.87H956.478V58.8697L914.897 124.87Z" fill="white"/>
<path d="M1194.42 83.8398C1205.71 83.8398 1215.39 87.9465 1223.46 96.1599C1231.53 104.227 1235.56 113.906 1235.56 125.2C1235.56 136.493 1231.53 146.173 1223.46 154.24C1215.39 162.307 1205.71 166.34 1194.42 166.34C1184.15 166.34 1175.06 162.967 1167.14 156.22C1159.37 149.327 1154.82 140.746 1153.5 130.48H1147.78C1148.37 156.44 1153.94 177.853 1164.5 194.72H1118.74C1129.3 177.853 1134.87 156.44 1135.46 130.48H1129.74C1128.42 140.746 1123.8 149.327 1115.88 156.22C1108.11 162.967 1099.09 166.34 1088.82 166.34C1077.53 166.34 1067.85 162.307 1059.78 154.24C1051.71 146.173 1047.68 136.493 1047.68 125.2C1047.68 113.906 1051.71 104.227 1059.78 96.1599C1067.85 87.9465 1077.53 83.8398 1088.82 83.8398C1099.67 83.8398 1109.06 87.5798 1116.98 95.0598L1120.94 88.2398C1114.05 84.4265 1108.55 79.0732 1104.44 72.1798C1100.33 65.2865 1098.28 57.9532 1098.28 50.1798C1098.28 38.2998 1102.53 28.1065 1111.04 19.5999C1119.55 11.0932 1129.74 6.83984 1141.62 6.83984C1153.5 6.83984 1163.69 11.0932 1172.2 19.5999C1180.71 28.1065 1184.96 38.2998 1184.96 50.1798C1184.96 57.9532 1182.91 65.2865 1178.8 72.1798C1174.69 79.0732 1169.19 84.4265 1162.3 88.2398L1166.26 95.0598C1174.18 87.5798 1183.57 83.8398 1194.42 83.8398Z" fill="white"/>
<path d="M1413.64 168.919H1428.6V149.339H1355.56V130.199L1431.9 9.19922H1452.14V125.139H1474.8V149.339H1452.14V168.919H1463.36V192.899H1413.64V168.919ZM1387.02 125.139H1428.6V59.1392L1387.02 125.139Z" fill="white"/>
<path d="M1597.46 0.839844C1598.05 5.09317 1606.48 17.4865 1622.76 38.0199C1633.32 51.0732 1643.88 64.1265 1654.44 77.1798C1662.22 87.8865 1667.5 96.9799 1670.28 104.46C1673.51 113.113 1675.12 123.453 1675.12 135.48C1675.12 145.6 1672.19 154.473 1666.32 162.1C1659.87 170.46 1651.73 174.64 1641.9 174.64C1632.08 174.64 1624.01 170.607 1617.7 162.54C1611.84 155.06 1608.9 146.26 1608.9 136.14H1603.62C1603.62 147.14 1605.02 158.36 1607.8 169.8C1610.88 182.267 1615.06 192.753 1620.34 201.26H1574.58C1585.73 183.66 1591.3 161.953 1591.3 136.14H1586.02C1586.02 146.26 1583.09 155.06 1577.22 162.54C1570.92 170.607 1562.85 174.64 1553.02 174.64C1543.2 174.64 1535.06 170.46 1528.6 162.1C1522.74 154.473 1519.8 145.6 1519.8 135.48C1519.8 123.453 1521.42 113.113 1524.64 104.46C1527.43 96.9799 1532.71 87.8865 1540.48 77.1798C1551.04 64.1265 1561.6 51.0732 1572.16 38.0199C1588.44 17.4865 1596.88 5.09317 1597.46 0.839844Z" fill="white"/>
</svg>
