<svg width="2088" height="201" viewBox="0 0 2088 201" fill="none" xmlns="http://www.w3.org/2000/svg">
<path d="M94.38 146.229H117.92V193.749H0.219999V181.649C0.219999 159.503 8.28667 139.629 24.42 122.029C30.7267 115.283 45.76 103.183 69.52 85.7295C85.6533 73.8495 93.72 63.6561 93.72 55.1495C93.72 47.2295 89.2467 41.0695 80.3 36.6695C73.26 33.1495 65.2667 31.3895 56.32 31.3895C34.4667 31.3895 23.54 38.7228 23.54 53.3895C23.54 56.4695 24.3467 59.9161 25.96 63.7295L3.96 72.9695C1.32 66.0761 0 59.5494 0 53.3895C0 38.1361 5.72 26.4028 17.16 18.1895C27.4267 10.8561 40.48 7.18945 56.32 7.18945C72.16 7.18945 85.8733 11.1495 97.46 19.0695C110.807 28.0161 117.48 40.0428 117.48 55.1495C117.48 69.2295 110.44 82.4295 96.36 94.7495C82.5733 105.309 68.7867 115.869 55 126.429C38.8667 139.923 29.1133 154.296 25.74 169.549H94.38V146.229Z" fill="#FF5555"/>
<path d="M201.64 3.55957C189.76 3.55957 180.153 9.13293 172.82 20.2796C166.22 29.9596 162.92 41.1063 162.92 53.7196C162.92 66.7729 168.347 82.4663 179.2 100.8C183.307 107.84 194.527 124.193 212.86 149.86C227.087 169.953 236.547 185.793 241.24 197.38C245.933 185.793 255.393 169.953 269.62 149.86C287.953 124.193 299.173 107.84 303.28 100.8C314.133 82.4663 319.56 66.7729 319.56 53.7196C319.56 41.1063 316.26 29.9596 309.66 20.2796C302.327 9.13293 292.72 3.55957 280.84 3.55957C269.107 3.55957 259.647 8.91293 252.46 19.6196C246.007 29.0063 242.78 39.8596 242.78 52.1796H239.48C239.48 39.8596 236.327 29.0063 230.02 19.6196C222.833 8.91293 213.373 3.55957 201.64 3.55957Z" fill="#FF5555"/>
<path d="M533.94 146.229H557.48V193.749H439.78V181.649C439.78 159.503 447.846 139.629 463.98 122.029C470.286 115.283 485.32 103.183 509.08 85.7295C525.213 73.8495 533.28 63.6561 533.28 55.1495C533.28 47.2295 528.806 41.0695 519.86 36.6695C512.82 33.1495 504.826 31.3895 495.88 31.3895C474.026 31.3895 463.1 38.7228 463.1 53.3895C463.1 56.4695 463.906 59.9161 465.52 63.7295L443.52 72.9695C440.88 66.0761 439.56 59.5494 439.56 53.3895C439.56 38.1361 445.28 26.4028 456.72 18.1895C466.986 10.8561 480.04 7.18945 495.88 7.18945C511.72 7.18945 525.433 11.1495 537.02 19.0695C550.366 28.0161 557.04 40.0428 557.04 55.1495C557.04 69.2295 550 82.4295 535.92 94.7495C522.133 105.309 508.346 115.869 494.56 126.429C478.426 139.923 468.673 154.296 465.3 169.549H533.94V146.229Z" fill="#FF5555"/>
<path d="M602.479 100.469C628.586 77.4425 652.639 45.1026 674.639 3.44922C696.639 45.1026 720.693 77.4425 746.799 100.469C720.693 123.496 696.639 155.836 674.639 197.489C652.639 155.836 628.586 123.496 602.479 100.469Z" fill="#FF5555"/>
<path d="M892.323 129.729C892.176 138.676 892.103 142.416 892.103 140.949C892.103 149.749 893.936 156.789 897.603 162.069C902.003 168.376 908.603 171.529 917.403 171.529C924.883 171.529 930.896 168.816 935.443 163.389C939.55 158.403 941.603 152.169 941.603 144.689V35.7894H921.583V9.60938H986.043V35.7894H966.903V144.689C966.903 159.503 962.43 171.896 953.483 181.869C944.096 192.283 932.07 197.489 917.403 197.489C902.59 197.489 890.416 192.356 880.883 182.089C871.35 171.823 866.656 159.283 866.803 144.469L867.023 129.729H892.323Z" fill="#FF5555"/>
<path d="M1031.04 100.469C1057.15 77.4426 1081.2 45.1026 1103.2 3.44922C1125.2 45.1026 1149.26 77.4426 1175.36 100.469C1149.26 123.496 1125.2 155.836 1103.2 197.489C1081.2 155.836 1057.15 123.496 1031.04 100.469Z" fill="#FF5555"/>
<path d="M1320.89 126.649C1320.74 135.596 1320.67 139.336 1320.67 137.869C1320.67 146.669 1322.5 153.709 1326.17 158.989C1330.57 165.296 1337.17 168.449 1345.97 168.449C1353.45 168.449 1359.46 165.736 1364.01 160.309C1368.11 155.323 1370.17 149.089 1370.17 141.609V32.7093H1350.15V6.5293H1414.61V32.7093H1395.47V141.609C1395.47 156.423 1390.99 168.816 1382.05 178.789C1372.66 189.203 1360.63 194.409 1345.97 194.409C1331.15 194.409 1318.98 189.276 1309.45 179.009C1299.91 168.743 1295.22 156.203 1295.37 141.389L1295.59 126.649H1320.89Z" fill="white"/>
<path d="M1606.35 83.5293C1617.64 83.5293 1627.32 87.636 1635.39 95.8493C1643.45 103.916 1647.49 113.596 1647.49 124.889C1647.49 136.183 1643.45 145.863 1635.39 153.929C1627.32 161.996 1617.64 166.029 1606.35 166.029C1596.08 166.029 1586.99 162.656 1579.07 155.909C1571.29 149.016 1566.75 140.436 1565.43 130.169H1559.71C1560.29 156.129 1565.87 177.543 1576.43 194.409H1530.67C1541.23 177.543 1546.8 156.129 1547.39 130.169H1541.67C1540.35 140.436 1535.73 149.016 1527.81 155.909C1520.03 162.656 1511.01 166.029 1500.75 166.029C1489.45 166.029 1479.77 161.996 1471.71 153.929C1463.64 145.863 1459.61 136.183 1459.61 124.889C1459.61 113.596 1463.64 103.916 1471.71 95.8493C1479.77 87.636 1489.45 83.5293 1500.75 83.5293C1511.6 83.5293 1520.99 87.2693 1528.91 94.7493L1532.87 87.9293C1525.97 84.116 1520.47 78.7627 1516.37 71.8693C1512.26 64.976 1510.21 57.6427 1510.21 49.8693C1510.21 37.9893 1514.46 27.796 1522.97 19.2893C1531.47 10.7826 1541.67 6.5293 1553.55 6.5293C1565.43 6.5293 1575.62 10.7826 1584.13 19.2893C1592.63 27.796 1596.89 37.9893 1596.89 49.8693C1596.89 57.6427 1594.83 64.976 1590.73 71.8693C1586.62 78.7627 1581.12 84.116 1574.23 87.9293L1578.19 94.7493C1586.11 87.2693 1595.49 83.5293 1606.35 83.5293Z" fill="white"/>
<path d="M1793.01 126.649C1792.86 135.596 1792.79 139.336 1792.79 137.869C1792.79 146.669 1794.62 153.709 1798.29 158.989C1802.69 165.296 1809.29 168.449 1818.09 168.449C1825.57 168.449 1831.58 165.736 1836.13 160.309C1840.24 155.323 1842.29 149.089 1842.29 141.609V32.7093H1822.27V6.5293H1886.73V32.7093H1867.59V141.609C1867.59 156.423 1863.12 168.816 1854.17 178.789C1844.78 189.203 1832.76 194.409 1818.09 194.409C1803.28 194.409 1791.1 189.276 1781.57 179.009C1772.04 168.743 1767.34 156.203 1767.49 141.389L1767.71 126.649H1793.01Z" fill="white"/>
<path d="M2009.39 0.259766C2009.98 4.5131 2018.41 16.9064 2034.69 37.4398C2045.25 50.4931 2055.81 63.5464 2066.37 76.5998C2074.14 87.3064 2079.42 96.3998 2082.21 103.88C2085.44 112.533 2087.05 122.873 2087.05 134.9C2087.05 145.02 2084.12 153.893 2078.25 161.52C2071.8 169.88 2063.66 174.06 2053.83 174.06C2044 174.06 2035.94 170.026 2029.63 161.96C2023.76 154.48 2020.83 145.68 2020.83 135.56H2015.55C2015.55 146.56 2016.94 157.78 2019.73 169.22C2022.81 181.686 2026.99 192.173 2032.27 200.68H1986.51C1997.66 183.08 2003.23 161.373 2003.23 135.56H1997.95C1997.95 145.68 1995.02 154.48 1989.15 161.96C1982.84 170.026 1974.78 174.06 1964.95 174.06C1955.12 174.06 1946.98 169.88 1940.53 161.52C1934.66 153.893 1931.73 145.02 1931.73 134.9C1931.73 122.873 1933.34 112.533 1936.57 103.88C1939.36 96.3998 1944.64 87.3064 1952.41 76.5998C1962.97 63.5464 1973.53 50.4931 1984.09 37.4398C2000.37 16.9064 2008.8 4.5131 2009.39 0.259766Z" fill="white"/>
</svg>
