<svg width="753" height="195" viewBox="0 0 753 195" fill="none" xmlns="http://www.w3.org/2000/svg">
<path d="M0 169.449H16.94V25.1287H0V4.88867H51.26V25.1287H36.96V95.3087L82.06 25.1287H64.68V4.88867H121V25.1287H104.94L68.2 82.1087L105.6 169.449H121V189.689H64.68V169.449H82.72L54.56 103.449L36.96 130.729V169.449H51.26V189.689H0V169.449Z" fill="#FF5555"/>
<path d="M204.72 0.378906C192.84 0.378906 183.233 5.95224 175.9 17.0989C169.3 26.7789 166 37.9256 166 50.5389C166 63.5922 171.427 79.2856 182.28 97.6189C186.387 104.659 197.607 121.012 215.94 146.679C230.167 166.772 239.627 182.612 244.32 194.199C249.013 182.612 258.473 166.772 272.7 146.679C291.033 121.012 302.253 104.659 306.36 97.6189C317.213 79.2856 322.64 63.5922 322.64 50.5389C322.64 37.9256 319.34 26.7789 312.74 17.0989C305.407 5.95224 295.8 0.378906 283.92 0.378906C272.187 0.378906 262.727 5.73223 255.54 16.4389C249.087 25.8256 245.86 36.6789 245.86 48.9989H242.56C242.56 36.6789 239.407 25.8256 233.1 16.4389C225.913 5.73223 216.453 0.378906 204.72 0.378906Z" fill="#FF5555"/>
<path d="M442.641 169.558H459.581V25.238H442.641V4.99805H493.901V25.238H479.601V95.4181L524.701 25.238H507.321V4.99805H563.641V25.238H547.581L510.841 82.218L548.241 169.558H563.641V189.798H507.321V169.558H525.361L497.201 103.558L479.601 130.838V169.558H493.901V189.798H442.641V169.558Z" fill="#FF5555"/>
<path d="M608.641 97.3989C634.747 74.3723 658.801 42.0322 680.801 0.378906C702.801 42.0322 726.854 74.3723 752.961 97.3989C726.854 120.426 702.801 152.766 680.801 194.419C658.801 152.766 634.747 120.426 608.641 97.3989Z" fill="#FF5555"/>
</svg>
