<svg width="1859" height="195" viewBox="0 0 1859 195" fill="none" xmlns="http://www.w3.org/2000/svg">
<path d="M724.66 111.65H724.44C724.147 112.236 724 107.03 724 96.0297C724 70.2164 727.52 49.463 734.56 33.7697C744.533 12.2097 760.887 1.42969 783.62 1.42969C794.767 1.42969 805.107 4.43636 814.64 10.4497C823.733 16.3164 831.14 24.2364 836.86 34.2097L816.4 46.5297C808.48 32.5964 797.553 25.6297 783.62 25.6297C765.433 25.6297 754.14 39.1964 749.74 66.3297C759.86 57.383 771.08 52.9097 783.4 52.9097C801.587 52.9097 816.4 60.463 827.84 75.5697C838.107 89.2097 843.24 105.49 843.24 124.41C843.24 142.01 837.74 157.556 826.74 171.05C815.007 185.276 800.56 192.39 783.4 192.39C774.893 192.39 766.02 189.603 756.78 184.03C746.953 178.163 739.107 167.383 733.24 151.69C728.693 139.516 725.833 126.17 724.66 111.65ZM783.4 168.41C793.96 168.41 802.76 163.57 809.8 153.89C816.4 145.09 819.7 135.263 819.7 124.41C819.7 112.236 816.693 101.676 810.68 92.7297C803.933 82.3164 794.84 77.1097 783.4 77.1097C775.04 77.1097 767.487 81.143 760.74 89.2097C755.167 95.9564 751.06 103.876 748.42 112.97C749.74 126.463 752.673 138.05 757.22 147.73C763.673 161.516 772.4 168.41 783.4 168.41Z" fill="#FF5555"/>
<path d="M926.962 0C915.082 0 905.476 5.57336 898.142 16.72C891.542 26.4 888.242 37.5467 888.242 50.16C888.242 63.2134 893.669 78.9067 904.522 97.24C908.629 104.28 919.849 120.633 938.182 146.3C952.409 166.393 961.869 182.233 966.562 193.82C971.256 182.233 980.716 166.393 994.942 146.3C1013.28 120.633 1024.5 104.28 1028.6 97.24C1039.46 78.9067 1044.88 63.2134 1044.88 50.16C1044.88 37.5467 1041.58 26.4 1034.98 16.72C1027.65 5.57336 1018.04 0 1006.16 0C994.429 0 984.969 5.35336 977.782 16.06C971.329 25.4467 968.102 36.3 968.102 48.62H964.802C964.802 36.3 961.649 25.4467 955.342 16.06C948.156 5.35336 938.696 0 926.962 0Z" fill="#FF5555"/>
<path d="M1121.66 111.759H1121.44C1121.15 112.346 1121 107.139 1121 96.1391C1121 70.3257 1124.52 49.5724 1131.56 33.8791C1141.53 12.3191 1157.89 1.53906 1180.62 1.53906C1191.77 1.53906 1202.11 4.54573 1211.64 10.5591C1220.73 16.4257 1228.14 24.3457 1233.86 34.3191L1213.4 46.6391C1205.48 32.7057 1194.55 25.7391 1180.62 25.7391C1162.43 25.7391 1151.14 39.3057 1146.74 66.4391C1156.86 57.4924 1168.08 53.0191 1180.4 53.0191C1198.59 53.0191 1213.4 60.5724 1224.84 75.6791C1235.11 89.3191 1240.24 105.599 1240.24 124.519C1240.24 142.119 1234.74 157.666 1223.74 171.159C1212.01 185.386 1197.56 192.499 1180.4 192.499C1171.89 192.499 1163.02 189.712 1153.78 184.139C1143.95 178.272 1136.11 167.492 1130.24 151.799C1125.69 139.626 1122.83 126.279 1121.66 111.759ZM1180.4 168.519C1190.96 168.519 1199.76 163.679 1206.8 153.999C1213.4 145.199 1216.7 135.372 1216.7 124.519C1216.7 112.346 1213.69 101.786 1207.68 92.8391C1200.93 82.4257 1191.84 77.2191 1180.4 77.2191C1172.04 77.2191 1164.49 81.2524 1157.74 89.3191C1152.17 96.0657 1148.06 103.986 1145.42 113.079C1146.74 126.572 1149.67 138.159 1154.22 147.839C1160.67 161.626 1169.4 168.519 1180.4 168.519Z" fill="#FF5555"/>
<path d="M1285.24 97.02C1311.35 73.9933 1335.4 41.6533 1357.4 0C1379.4 41.6533 1403.46 73.9933 1429.56 97.02C1403.46 120.047 1379.4 152.387 1357.4 194.04C1335.4 152.387 1311.35 120.047 1285.24 97.02Z" fill="#FF5555"/>
<path d="M1506.66 112.22H1506.44C1506.15 112.807 1506 107.6 1506 96.6C1506 70.7867 1509.52 50.0333 1516.56 34.34C1526.53 12.78 1542.89 2 1565.62 2C1576.77 2 1587.11 5.00667 1596.64 11.02C1605.73 16.8867 1613.14 24.8067 1618.86 34.78L1598.4 47.1C1590.48 33.1667 1579.55 26.2 1565.62 26.2C1547.43 26.2 1536.14 39.7667 1531.74 66.9C1541.86 57.9533 1553.08 53.48 1565.4 53.48C1583.59 53.48 1598.4 61.0333 1609.84 76.14C1620.11 89.78 1625.24 106.06 1625.24 124.98C1625.24 142.58 1619.74 158.127 1608.74 171.62C1597.01 185.847 1582.56 192.96 1565.4 192.96C1556.89 192.96 1548.02 190.173 1538.78 184.6C1528.95 178.733 1521.11 167.953 1515.24 152.26C1510.69 140.087 1507.83 126.74 1506.66 112.22ZM1565.4 168.98C1575.96 168.98 1584.76 164.14 1591.8 154.46C1598.4 145.66 1601.7 135.833 1601.7 124.98C1601.7 112.807 1598.69 102.247 1592.68 93.3C1585.93 82.8867 1576.84 77.68 1565.4 77.68C1557.04 77.68 1549.49 81.7133 1542.74 89.78C1537.17 96.5267 1533.06 104.447 1530.42 113.54C1531.74 127.033 1534.67 138.62 1539.22 148.3C1545.67 162.087 1554.4 168.98 1565.4 168.98Z" fill="white"/>
<path d="M1816.98 80.5391C1828.28 80.5391 1837.96 84.6457 1846.02 92.8591C1854.09 100.926 1858.12 110.606 1858.12 121.899C1858.12 133.192 1854.09 142.872 1846.02 150.939C1837.96 159.006 1828.28 163.039 1816.98 163.039C1806.72 163.039 1797.62 159.666 1789.7 152.919C1781.93 146.026 1777.38 137.446 1776.06 127.179H1770.34C1770.93 153.139 1776.5 174.552 1787.06 191.419H1741.3C1751.86 174.552 1757.44 153.139 1758.02 127.179H1752.3C1750.98 137.446 1746.36 146.026 1738.44 152.919C1730.67 159.666 1721.65 163.039 1711.38 163.039C1700.09 163.039 1690.41 159.006 1682.34 150.939C1674.28 142.872 1670.24 133.192 1670.24 121.899C1670.24 110.606 1674.28 100.926 1682.34 92.8591C1690.41 84.6457 1700.09 80.5391 1711.38 80.5391C1722.24 80.5391 1731.62 84.2791 1739.54 91.7591L1743.5 84.9391C1736.61 81.1257 1731.11 75.7724 1727 68.8791C1722.9 61.9857 1720.84 54.6524 1720.84 46.8791C1720.84 34.9991 1725.1 24.8057 1733.6 16.2991C1742.11 7.7924 1752.3 3.53906 1764.18 3.53906C1776.06 3.53906 1786.26 7.7924 1794.76 16.2991C1803.27 24.8057 1807.52 34.9991 1807.52 46.8791C1807.52 54.6524 1805.47 61.9857 1801.36 68.8791C1797.26 75.7724 1791.76 81.1257 1784.86 84.9391L1788.82 91.7591C1796.74 84.2791 1806.13 80.5391 1816.98 80.5391Z" fill="white"/>
<path d="M34.54 110.659C43.4867 111.686 52.4333 115.792 61.38 122.979C66.9533 127.379 74.0667 134.419 82.72 144.099V45.3191C82.72 40.0391 80.1533 35.2724 75.02 31.0191C70.0333 26.7657 64.6067 24.6391 58.74 24.6391C52.8733 24.6391 47.3733 26.7657 42.24 31.0191C37.1067 35.2724 34.54 40.0391 34.54 45.3191V110.659ZM71.94 165.219L43.56 137.499C41.2133 135.152 38.2067 133.686 34.54 133.099V148.939C34.54 154.072 37.1067 158.766 42.24 163.019C47.3733 167.272 52.8733 169.399 58.74 169.399C63.2867 169.399 67.6867 168.006 71.94 165.219ZM120.56 188.539C111.907 188.539 105.673 188.172 101.86 187.439C97.46 186.412 93.2067 184.359 89.1 181.279C79.86 188.759 69.74 192.499 58.74 192.499C46.86 192.499 36.2267 188.246 26.84 179.739C17.0133 170.939 12.1 160.672 12.1 148.939V132.659H0V111.539C0.44 111.392 4.47333 111.099 12.1 110.659V45.3191C12.1 33.4391 17.0133 23.0991 26.84 14.2991C36.2267 5.7924 46.86 1.53906 58.74 1.53906C70.62 1.53906 81.3267 5.86573 90.86 14.5191C100.54 23.1724 105.38 33.4391 105.38 45.3191V148.939C105.38 153.926 104.353 158.839 102.3 163.679C104.353 164.999 106.26 165.879 108.02 166.319H120.56V188.539Z" fill="#FF5555"/>
<path d="M204.283 0.109375C192.403 0.109375 182.796 5.6827 175.463 16.8294C168.863 26.5094 165.562 37.656 165.562 50.2694C165.562 63.3227 170.989 79.016 181.843 97.3494C185.949 104.389 197.169 120.743 215.503 146.409C229.729 166.503 239.189 182.343 243.882 193.929C248.576 182.343 258.036 166.503 272.263 146.409C290.596 120.743 301.816 104.389 305.923 97.3494C316.776 79.016 322.203 63.3227 322.203 50.2694C322.203 37.656 318.903 26.5094 312.303 16.8294C304.969 5.6827 295.363 0.109375 283.483 0.109375C271.749 0.109375 262.289 5.4627 255.103 16.1694C248.649 25.556 245.423 36.4094 245.423 48.7294H242.123C242.123 36.4094 238.969 25.556 232.663 16.1694C225.476 5.4627 216.016 0.109375 204.283 0.109375Z" fill="#FF5555"/>
<path d="M401.743 110.659C410.69 111.686 419.636 115.792 428.583 122.979C434.156 127.379 441.27 134.419 449.923 144.099V45.3191C449.923 40.0391 447.356 35.2724 442.223 31.0191C437.236 26.7657 431.81 24.6391 425.943 24.6391C420.076 24.6391 414.576 26.7657 409.443 31.0191C404.31 35.2724 401.743 40.0391 401.743 45.3191V110.659ZM439.143 165.219L410.763 137.499C408.416 135.152 405.41 133.686 401.743 133.099V148.939C401.743 154.072 404.31 158.766 409.443 163.019C414.576 167.272 420.076 169.399 425.943 169.399C430.49 169.399 434.89 168.006 439.143 165.219ZM487.763 188.539C479.11 188.539 472.876 188.172 469.063 187.439C464.663 186.412 460.41 184.359 456.303 181.279C447.063 188.759 436.943 192.499 425.943 192.499C414.063 192.499 403.43 188.246 394.043 179.739C384.216 170.939 379.303 160.672 379.303 148.939V132.659H367.203V111.539C367.643 111.392 371.676 111.099 379.303 110.659V45.3191C379.303 33.4391 384.216 23.0991 394.043 14.2991C403.43 5.7924 414.063 1.53906 425.943 1.53906C437.823 1.53906 448.53 5.86573 458.063 14.5191C467.743 23.1724 472.583 33.4391 472.583 45.3191V148.939C472.583 153.926 471.556 158.839 469.503 163.679C471.556 164.999 473.463 165.879 475.223 166.319H487.763V188.539Z" fill="#FF5555"/>
<path d="M532.758 97.02C558.864 73.9934 582.918 41.6533 604.918 0C626.918 41.6533 650.971 73.9934 677.078 97.02C650.971 120.047 626.918 152.387 604.918 194.04C582.918 152.387 558.864 120.047 532.758 97.02Z" fill="#FF5555"/>
</svg>
