<svg width="1677" height="201" viewBox="0 0 1677 201" fill="none" xmlns="http://www.w3.org/2000/svg">
<path d="M34.54 113.71C43.4867 114.737 52.4333 118.843 61.38 126.03C66.9533 130.43 74.0667 137.47 82.72 147.15V48.3698C82.72 43.0899 80.1533 38.3232 75.02 34.0698C70.0333 29.8165 64.6067 27.6898 58.74 27.6898C52.8733 27.6898 47.3733 29.8165 42.24 34.0698C37.1067 38.3232 34.54 43.0899 34.54 48.3698V113.71ZM71.94 168.27L43.56 140.55C41.2133 138.203 38.2067 136.737 34.54 136.15V151.99C34.54 157.123 37.1067 161.817 42.24 166.07C47.3733 170.323 52.8733 172.45 58.74 172.45C63.2867 172.45 67.6867 171.057 71.94 168.27ZM120.56 191.59C111.907 191.59 105.673 191.223 101.86 190.49C97.46 189.463 93.2067 187.41 89.1 184.33C79.86 191.81 69.74 195.55 58.74 195.55C46.86 195.55 36.2267 191.297 26.84 182.79C17.0133 173.99 12.1 163.723 12.1 151.99V135.71H0V114.59C0.44 114.443 4.47333 114.15 12.1 113.71V48.3698C12.1 36.4898 17.0133 26.1498 26.84 17.3498C36.2267 8.84318 46.86 4.58984 58.74 4.58984C70.62 4.58984 81.3267 8.91651 90.86 17.5698C100.54 26.2232 105.38 36.4898 105.38 48.3698V151.99C105.38 156.977 104.353 161.89 102.3 166.73C104.353 168.05 106.26 168.93 108.02 169.37H120.56V191.59Z" fill="#FF5555"/>
<path d="M204.283 3.16016C192.403 3.16016 182.796 8.73349 175.463 19.8802C168.863 29.5602 165.562 40.7068 165.562 53.3202C165.562 66.3735 170.989 82.0668 181.843 100.4C185.949 107.44 197.169 123.794 215.503 149.46C229.729 169.554 239.189 185.393 243.882 196.98C248.576 185.393 258.036 169.554 272.263 149.46C290.596 123.794 301.816 107.44 305.923 100.4C316.776 82.0668 322.203 66.3735 322.203 53.3202C322.203 40.7068 318.903 29.5602 312.303 19.8802C304.969 8.73349 295.363 3.16016 283.483 3.16016C271.749 3.16016 262.289 8.51348 255.103 19.2202C248.649 28.6068 245.423 39.4602 245.423 51.7802H242.123C242.123 39.4602 238.969 28.6068 232.663 19.2202C225.476 8.51348 216.016 3.16016 204.283 3.16016Z" fill="#FF5555"/>
<path d="M489.423 113.659C498.369 114.686 507.316 118.792 516.263 125.979C521.836 130.379 528.949 137.419 537.603 147.099V48.3191C537.603 43.0391 535.036 38.2724 529.903 34.0191C524.916 29.7657 519.489 27.6391 513.623 27.6391C507.756 27.6391 502.256 29.7657 497.123 34.0191C491.989 38.2724 489.423 43.0391 489.423 48.3191V113.659ZM526.823 168.219L498.443 140.499C496.096 138.152 493.089 136.686 489.423 136.099V151.939C489.423 157.072 491.989 161.766 497.123 166.019C502.256 170.272 507.756 172.399 513.623 172.399C518.169 172.399 522.569 171.006 526.823 168.219ZM575.443 191.539C566.789 191.539 560.556 191.172 556.743 190.439C552.343 189.412 548.089 187.359 543.983 184.279C534.743 191.759 524.623 195.499 513.623 195.499C501.743 195.499 491.109 191.246 481.723 182.739C471.896 173.939 466.983 163.672 466.983 151.939V135.659H454.883V114.539C455.323 114.392 459.356 114.099 466.983 113.659V48.3191C466.983 36.4391 471.896 26.0991 481.723 17.2991C491.109 8.7924 501.743 4.53906 513.623 4.53906C525.503 4.53906 536.209 8.86573 545.743 17.5191C555.423 26.1724 560.263 36.4391 560.263 48.3191V151.939C560.263 156.926 559.236 161.839 557.183 166.679C559.236 167.999 561.143 168.879 562.903 169.319H575.443V191.539Z" fill="#FF5555"/>
<path d="M620.445 100.02C646.552 76.9934 670.605 44.6533 692.605 3C714.605 44.6533 738.659 76.9934 764.765 100.02C738.659 123.047 714.605 155.387 692.605 197.04C670.605 155.387 646.552 123.047 620.445 100.02Z" fill="#FF5555"/>
<path d="M917.978 115.12C926.924 116.147 935.871 120.253 944.817 127.44C950.391 131.84 957.504 138.88 966.158 148.56V49.78C966.158 44.5 963.591 39.7333 958.458 35.48C953.471 31.2267 948.044 29.1 942.178 29.1C936.311 29.1 930.811 31.2267 925.678 35.48C920.544 39.7333 917.978 44.5 917.978 49.78V115.12ZM955.378 169.68L926.998 141.96C924.651 139.613 921.644 138.147 917.978 137.56V153.4C917.978 158.533 920.544 163.227 925.678 167.48C930.811 171.733 936.311 173.86 942.178 173.86C946.724 173.86 951.124 172.467 955.378 169.68ZM1004 193C995.344 193 989.111 192.633 985.298 191.9C980.898 190.873 976.644 188.82 972.538 185.74C963.298 193.22 953.178 196.96 942.178 196.96C930.298 196.96 919.664 192.707 910.278 184.2C900.451 175.4 895.538 165.133 895.538 153.4V137.12H883.438V116C883.877 115.853 887.911 115.56 895.538 115.12V49.78C895.538 37.9 900.451 27.56 910.278 18.76C919.664 10.2533 930.298 6 942.178 6C954.058 6 964.764 10.3267 974.298 18.98C983.978 27.6333 988.818 37.9 988.818 49.78V153.4C988.818 158.387 987.791 163.3 985.738 168.14C987.791 169.46 989.698 170.34 991.458 170.78H1004V193Z" fill="white"/>
<path d="M1195.74 84.5391C1207.03 84.5391 1216.71 88.6457 1224.78 96.8591C1232.85 104.926 1236.88 114.606 1236.88 125.899C1236.88 137.192 1232.85 146.872 1224.78 154.939C1216.71 163.006 1207.03 167.039 1195.74 167.039C1185.47 167.039 1176.38 163.666 1168.46 156.919C1160.69 150.026 1156.14 141.446 1154.82 131.179H1149.1C1149.69 157.139 1155.26 178.552 1165.82 195.419H1120.06C1130.62 178.552 1136.19 157.139 1136.78 131.179H1131.06C1129.74 141.446 1125.12 150.026 1117.2 156.919C1109.43 163.666 1100.41 167.039 1090.14 167.039C1078.85 167.039 1069.17 163.006 1061.1 154.939C1053.03 146.872 1049 137.192 1049 125.899C1049 114.606 1053.03 104.926 1061.1 96.8591C1069.17 88.6457 1078.85 84.5391 1090.14 84.5391C1100.99 84.5391 1110.38 88.2791 1118.3 95.7591L1122.26 88.9391C1115.37 85.1257 1109.87 79.7724 1105.76 72.8791C1101.65 65.9857 1099.6 58.6524 1099.6 50.8791C1099.6 38.9991 1103.85 28.8057 1112.36 20.2991C1120.87 11.7924 1131.06 7.53906 1142.94 7.53906C1154.82 7.53906 1165.01 11.7924 1173.52 20.2991C1182.03 28.8057 1186.28 38.9991 1186.28 50.8791C1186.28 58.6524 1184.23 65.9857 1180.12 72.8791C1176.01 79.7724 1170.51 85.1257 1163.62 88.9391L1167.58 95.7591C1175.5 88.2791 1184.89 84.5391 1195.74 84.5391Z" fill="white"/>
<path d="M1390.1 113.85C1399.05 114.877 1408 118.984 1416.94 126.17C1422.52 130.57 1429.63 137.61 1438.28 147.29V48.5105C1438.28 43.2305 1435.72 38.4638 1430.58 34.2105C1425.6 29.9571 1420.17 27.8305 1414.3 27.8305C1408.44 27.8305 1402.94 29.9571 1397.8 34.2105C1392.67 38.4638 1390.1 43.2305 1390.1 48.5105V113.85ZM1427.5 168.41L1399.12 140.69C1396.78 138.344 1393.77 136.877 1390.1 136.29V152.13C1390.1 157.264 1392.67 161.957 1397.8 166.21C1402.94 170.464 1408.44 172.59 1414.3 172.59C1418.85 172.59 1423.25 171.197 1427.5 168.41ZM1476.12 191.73C1467.47 191.73 1461.24 191.364 1457.42 190.63C1453.02 189.604 1448.77 187.55 1444.66 184.47C1435.42 191.95 1425.3 195.69 1414.3 195.69C1402.42 195.69 1391.79 191.437 1382.4 182.93C1372.58 174.13 1367.66 163.864 1367.66 152.13V135.85H1355.56V114.73C1356 114.584 1360.04 114.29 1367.66 113.85V48.5105C1367.66 36.6305 1372.58 26.2905 1382.4 17.4905C1391.79 8.9838 1402.42 4.73047 1414.3 4.73047C1426.18 4.73047 1436.89 9.05714 1446.42 17.7105C1456.1 26.3638 1460.94 36.6305 1460.94 48.5105V152.13C1460.94 157.117 1459.92 162.03 1457.86 166.87C1459.92 168.19 1461.82 169.07 1463.58 169.51H1476.12V191.73Z" fill="white"/>
<path d="M1598.79 0C1599.37 4.25333 1607.81 16.6467 1624.08 37.18C1634.65 50.2334 1645.21 63.2867 1655.77 76.34C1663.54 87.0467 1668.82 96.14 1671.61 103.62C1674.83 112.273 1676.45 122.613 1676.45 134.64C1676.45 144.76 1673.51 153.633 1667.65 161.26C1661.19 169.62 1653.05 173.8 1643.22 173.8C1633.4 173.8 1625.33 169.767 1619.03 161.7C1613.16 154.22 1610.23 145.42 1610.23 135.3H1604.94C1604.94 146.3 1606.34 157.52 1609.12 168.96C1612.21 181.427 1616.39 191.913 1621.67 200.42H1575.91C1587.05 182.82 1592.63 161.113 1592.63 135.3H1587.35C1587.35 145.42 1584.41 154.22 1578.55 161.7C1572.24 169.767 1564.17 173.8 1554.35 173.8C1544.52 173.8 1536.38 169.62 1529.93 161.26C1524.06 153.633 1521.12 144.76 1521.12 134.64C1521.12 122.613 1522.74 112.273 1525.97 103.62C1528.75 96.14 1534.03 87.0467 1541.81 76.34C1552.37 63.2867 1562.93 50.2334 1573.49 37.18C1589.76 16.6467 1598.2 4.25333 1598.79 0Z" fill="white"/>
</svg>
