<svg width="1827" height="195" viewBox="0 0 1827 195" fill="none" xmlns="http://www.w3.org/2000/svg">
<path d="M34.54 110.659C43.4867 111.686 52.4333 115.792 61.38 122.979C66.9533 127.379 74.0667 134.419 82.72 144.099V45.3191C82.72 40.0391 80.1533 35.2724 75.02 31.0191C70.0333 26.7657 64.6067 24.6391 58.74 24.6391C52.8733 24.6391 47.3733 26.7657 42.24 31.0191C37.1067 35.2724 34.54 40.0391 34.54 45.3191V110.659ZM71.94 165.219L43.56 137.499C41.2133 135.152 38.2067 133.686 34.54 133.099V148.939C34.54 154.072 37.1067 158.766 42.24 163.019C47.3733 167.272 52.8733 169.399 58.74 169.399C63.2867 169.399 67.6867 168.006 71.94 165.219ZM120.56 188.539C111.907 188.539 105.673 188.172 101.86 187.439C97.46 186.412 93.2067 184.359 89.1 181.279C79.86 188.759 69.74 192.499 58.74 192.499C46.86 192.499 36.2267 188.246 26.84 179.739C17.0133 170.939 12.1 160.672 12.1 148.939V132.659H0V111.539C0.44 111.392 4.47333 111.099 12.1 110.659V45.3191C12.1 33.4391 17.0133 23.0991 26.84 14.2991C36.2267 5.7924 46.86 1.53906 58.74 1.53906C70.62 1.53906 81.3267 5.86573 90.86 14.5191C100.54 23.1724 105.38 33.4391 105.38 45.3191V148.939C105.38 153.926 104.353 158.839 102.3 163.679C104.353 164.999 106.26 165.879 108.02 166.319H120.56V188.539Z" fill="#FF5555"/>
<path d="M204.283 0.109375C192.403 0.109375 182.796 5.6827 175.463 16.8294C168.863 26.5094 165.562 37.656 165.562 50.2694C165.562 63.3227 170.989 79.016 181.843 97.3494C185.949 104.389 197.169 120.743 215.503 146.409C229.729 166.503 239.189 182.343 243.882 193.929C248.576 182.343 258.036 166.503 272.263 146.409C290.596 120.743 301.816 104.389 305.923 97.3494C316.776 79.016 322.203 63.3227 322.203 50.2694C322.203 37.656 318.903 26.5094 312.303 16.8294C304.969 5.6827 295.363 0.109375 283.483 0.109375C271.749 0.109375 262.289 5.4627 255.103 16.1694C248.649 25.556 245.423 36.4094 245.423 48.7294H242.123C242.123 36.4094 238.969 25.556 232.663 16.1694C225.476 5.4627 216.016 0.109375 204.283 0.109375Z" fill="#FF5555"/>
<path d="M401.743 110.659C410.69 111.686 419.636 115.792 428.583 122.979C434.156 127.379 441.27 134.419 449.923 144.099V45.3191C449.923 40.0391 447.356 35.2724 442.223 31.0191C437.236 26.7657 431.81 24.6391 425.943 24.6391C420.076 24.6391 414.576 26.7657 409.443 31.0191C404.31 35.2724 401.743 40.0391 401.743 45.3191V110.659ZM439.143 165.219L410.763 137.499C408.416 135.152 405.41 133.686 401.743 133.099V148.939C401.743 154.072 404.31 158.766 409.443 163.019C414.576 167.272 420.076 169.399 425.943 169.399C430.49 169.399 434.89 168.006 439.143 165.219ZM487.763 188.539C479.11 188.539 472.876 188.172 469.063 187.439C464.663 186.412 460.41 184.359 456.303 181.279C447.063 188.759 436.943 192.499 425.943 192.499C414.063 192.499 403.43 188.246 394.043 179.739C384.216 170.939 379.303 160.672 379.303 148.939V132.659H367.203V111.539C367.643 111.392 371.676 111.099 379.303 110.659V45.3191C379.303 33.4391 384.216 23.0991 394.043 14.2991C403.43 5.7924 414.063 1.53906 425.943 1.53906C437.823 1.53906 448.53 5.86573 458.063 14.5191C467.743 23.1724 472.583 33.4391 472.583 45.3191V148.939C472.583 153.926 471.556 158.839 469.503 163.679C471.556 164.999 473.463 165.879 475.223 166.319H487.763V188.539Z" fill="#FF5555"/>
<path d="M532.758 97.02C558.864 73.9934 582.918 41.6533 604.918 0C626.918 41.6533 650.971 73.9934 677.078 97.02C650.971 120.047 626.918 152.387 604.918 194.04C582.918 152.387 558.864 120.047 532.758 97.02Z" fill="#FF5555"/>
<path d="M756.618 110.659C765.565 111.686 774.511 115.792 783.458 122.979C789.031 127.379 796.145 134.419 804.798 144.099V45.3191C804.798 40.0391 802.231 35.2724 797.098 31.0191C792.111 26.7657 786.685 24.6391 780.818 24.6391C774.951 24.6391 769.451 26.7657 764.318 31.0191C759.185 35.2724 756.618 40.0391 756.618 45.3191V110.659ZM794.018 165.219L765.638 137.499C763.291 135.152 760.285 133.686 756.618 133.099V148.939C756.618 154.072 759.185 158.766 764.318 163.019C769.451 167.272 774.951 169.399 780.818 169.399C785.365 169.399 789.765 168.006 794.018 165.219ZM842.638 188.539C833.985 188.539 827.751 188.172 823.938 187.439C819.538 186.412 815.285 184.359 811.178 181.279C801.938 188.759 791.818 192.499 780.818 192.499C768.938 192.499 758.305 188.246 748.918 179.739C739.091 170.939 734.178 160.672 734.178 148.939V132.659H722.078V111.539C722.518 111.392 726.551 111.099 734.178 110.659V45.3191C734.178 33.4391 739.091 23.0991 748.918 14.2991C758.305 5.7924 768.938 1.53906 780.818 1.53906C792.698 1.53906 803.405 5.86573 812.938 14.5191C822.618 23.1724 827.458 33.4391 827.458 45.3191V148.939C827.458 153.926 826.431 158.839 824.378 163.679C826.431 164.999 828.338 165.879 830.098 166.319H842.638V188.539Z" fill="white"/>
<path d="M1034.38 80.0801C1045.67 80.0801 1055.35 84.1868 1063.42 92.4001C1071.49 100.467 1075.52 110.147 1075.52 121.44C1075.52 132.733 1071.49 142.413 1063.42 150.48C1055.35 158.547 1045.67 162.58 1034.38 162.58C1024.11 162.58 1015.02 159.207 1007.1 152.46C999.327 145.567 994.781 136.987 993.461 126.72H987.741C988.327 152.68 993.901 174.093 1004.46 190.96H958.701C969.261 174.093 974.834 152.68 975.421 126.72H969.701C968.381 136.987 963.761 145.567 955.841 152.46C948.067 159.207 939.047 162.58 928.781 162.58C917.487 162.58 907.807 158.547 899.741 150.48C891.674 142.413 887.641 132.733 887.641 121.44C887.641 110.147 891.674 100.467 899.741 92.4001C907.807 84.1868 917.487 80.0801 928.781 80.0801C939.634 80.0801 949.021 83.8201 956.941 91.3001L960.901 84.4801C954.007 80.6667 948.507 75.3134 944.401 68.4201C940.294 61.5267 938.241 54.1934 938.241 46.4201C938.241 34.5401 942.494 24.3468 951.001 15.8401C959.507 7.33342 969.701 3.08008 981.581 3.08008C993.461 3.08008 1003.65 7.33342 1012.16 15.8401C1020.67 24.3468 1024.92 34.5401 1024.92 46.4201C1024.92 54.1934 1022.87 61.5267 1018.76 68.4201C1014.65 75.3134 1009.15 80.6667 1002.26 84.4801L1006.22 91.3001C1014.14 83.8201 1023.53 80.0801 1034.38 80.0801Z" fill="white"/>
<path d="M1121.18 111.759H1120.96C1120.66 112.346 1120.52 107.139 1120.52 96.1391C1120.52 70.3257 1124.04 49.5724 1131.08 33.8791C1141.05 12.3191 1157.4 1.53906 1180.14 1.53906C1191.28 1.53906 1201.62 4.54573 1211.16 10.5591C1220.25 16.4257 1227.66 24.3457 1233.38 34.3191L1212.92 46.6391C1205 32.7057 1194.07 25.7391 1180.14 25.7391C1161.95 25.7391 1150.66 39.3057 1146.26 66.4391C1156.38 57.4924 1167.6 53.0191 1179.92 53.0191C1198.1 53.0191 1212.92 60.5724 1224.36 75.6791C1234.62 89.3191 1239.76 105.599 1239.76 124.519C1239.76 142.119 1234.26 157.666 1223.26 171.159C1211.52 185.386 1197.08 192.499 1179.92 192.499C1171.41 192.499 1162.54 189.712 1153.3 184.139C1143.47 178.272 1135.62 167.492 1129.76 151.799C1125.21 139.626 1122.35 126.279 1121.18 111.759ZM1179.92 168.519C1190.48 168.519 1199.28 163.679 1206.32 153.999C1212.92 145.199 1216.22 135.372 1216.22 124.519C1216.22 112.346 1213.21 101.786 1207.2 92.8391C1200.45 82.4257 1191.36 77.2191 1179.92 77.2191C1171.56 77.2191 1164 81.2524 1157.26 89.3191C1151.68 96.0657 1147.58 103.986 1144.94 113.079C1146.26 126.572 1149.19 138.159 1153.74 147.839C1160.19 161.626 1168.92 168.519 1179.92 168.519Z" fill="#FF5555"/>
<path d="M1284.76 97.02C1310.86 73.9933 1334.92 41.6533 1356.92 0C1378.92 41.6533 1402.97 73.9933 1429.08 97.02C1402.97 120.047 1378.92 152.387 1356.92 194.04C1334.92 152.387 1310.86 120.047 1284.76 97.02Z" fill="#FF5555"/>
<path d="M1474.74 111.759H1474.52C1474.22 112.346 1474.08 107.139 1474.08 96.1391C1474.08 70.3257 1477.6 49.5724 1484.64 33.8791C1494.61 12.3191 1510.96 1.53906 1533.7 1.53906C1544.84 1.53906 1555.18 4.54573 1564.72 10.5591C1573.81 16.4257 1581.22 24.3457 1586.94 34.3191L1566.48 46.6391C1558.56 32.7057 1547.63 25.7391 1533.7 25.7391C1515.51 25.7391 1504.22 39.3057 1499.82 66.4391C1509.94 57.4924 1521.16 53.0191 1533.48 53.0191C1551.66 53.0191 1566.48 60.5724 1577.92 75.6791C1588.18 89.3191 1593.32 105.599 1593.32 124.519C1593.32 142.119 1587.82 157.666 1576.82 171.159C1565.08 185.386 1550.64 192.499 1533.48 192.499C1524.97 192.499 1516.1 189.712 1506.86 184.139C1497.03 178.272 1489.18 167.492 1483.32 151.799C1478.77 139.626 1475.91 126.279 1474.74 111.759ZM1533.48 168.519C1544.04 168.519 1552.84 163.679 1559.88 153.999C1566.48 145.199 1569.78 135.372 1569.78 124.519C1569.78 112.346 1566.77 101.786 1560.76 92.8391C1554.01 82.4257 1544.92 77.2191 1533.48 77.2191C1525.12 77.2191 1517.56 81.2524 1510.82 89.3191C1505.24 96.0657 1501.14 103.986 1498.5 113.079C1499.82 126.572 1502.75 138.159 1507.3 147.839C1513.75 161.626 1522.48 168.519 1533.48 168.519Z" fill="white"/>
<path d="M1785.06 80.0781C1796.35 80.0781 1806.03 84.1848 1814.1 92.3981C1822.17 100.465 1826.2 110.145 1826.2 121.438C1826.2 132.731 1822.17 142.411 1814.1 150.478C1806.03 158.545 1796.35 162.578 1785.06 162.578C1774.79 162.578 1765.7 159.205 1757.78 152.458C1750.01 145.565 1745.46 136.985 1744.14 126.718H1738.42C1739.01 152.678 1744.58 174.091 1755.14 190.958H1709.38C1719.94 174.091 1725.51 152.678 1726.1 126.718H1720.38C1719.06 136.985 1714.44 145.565 1706.52 152.458C1698.75 159.205 1689.73 162.578 1679.46 162.578C1668.17 162.578 1658.49 158.545 1650.42 150.478C1642.35 142.411 1638.32 132.731 1638.32 121.438C1638.32 110.145 1642.35 100.465 1650.42 92.3981C1658.49 84.1848 1668.17 80.0781 1679.46 80.0781C1690.31 80.0781 1699.7 83.8181 1707.62 91.2981L1711.58 84.4781C1704.69 80.6648 1699.19 75.3115 1695.08 68.4181C1690.97 61.5248 1688.92 54.1915 1688.92 46.4181C1688.92 34.5381 1693.17 24.3448 1701.68 15.8381C1710.19 7.33146 1720.38 3.07812 1732.26 3.07812C1744.14 3.07812 1754.33 7.33146 1762.84 15.8381C1771.35 24.3448 1775.6 34.5381 1775.6 46.4181C1775.6 54.1915 1773.55 61.5248 1769.44 68.4181C1765.33 75.3115 1759.83 80.6648 1752.94 84.4781L1756.9 91.2981C1764.82 83.8181 1774.21 80.0781 1785.06 80.0781Z" fill="white"/>
</svg>
