<svg width="2275" height="194" viewBox="0 0 2275 194" fill="none" xmlns="http://www.w3.org/2000/svg">
<path d="M2156.72 0C2144.84 0 2135.23 5.57333 2127.9 16.72C2121.3 26.4 2118 37.5467 2118 50.16C2118 63.2133 2123.43 78.9067 2134.28 97.24C2138.39 104.28 2149.61 120.633 2167.94 146.3C2182.17 166.393 2191.63 182.233 2196.32 193.82C2201.01 182.233 2210.47 166.393 2224.7 146.3C2243.03 120.633 2254.25 104.28 2258.36 97.24C2269.21 78.9067 2274.64 63.2133 2274.64 50.16C2274.64 37.5467 2271.34 26.4 2264.74 16.72C2257.41 5.57333 2247.8 0 2235.92 0C2224.19 0 2214.73 5.35333 2207.54 16.06C2201.09 25.4467 2197.86 36.3 2197.86 48.62H2194.56C2194.56 36.3 2191.41 25.4467 2185.1 16.06C2177.91 5.35333 2168.45 0 2156.72 0Z" fill="#FF5555"/>
<path d="M1505 169.07H1521.94V24.7498H1505V4.50977H1556.26V24.7498H1541.96V94.9298L1587.06 24.7498H1569.68V4.50977H1626V24.7498H1609.94L1573.2 81.7298L1610.6 169.07H1626V189.31H1569.68V169.07H1587.72L1559.56 103.07L1541.96 130.35V169.07H1556.26V189.31H1505V169.07Z" fill="#FF5555"/>
<path d="M1709.72 0C1697.84 0 1688.23 5.57333 1680.9 16.72C1674.3 26.4 1671 37.5467 1671 50.16C1671 63.2133 1676.43 78.9067 1687.28 97.24C1691.39 104.28 1702.61 120.633 1720.94 146.3C1735.17 166.393 1744.63 182.233 1749.32 193.82C1754.01 182.233 1763.47 166.393 1777.7 146.3C1796.03 120.633 1807.25 104.28 1811.36 97.24C1822.21 78.9067 1827.64 63.2133 1827.64 50.16C1827.64 37.5467 1824.34 26.4 1817.74 16.72C1810.41 5.57333 1800.8 0 1788.92 0C1777.19 0 1767.73 5.35333 1760.54 16.06C1754.09 25.4467 1750.86 36.3 1750.86 48.62H1747.56C1747.56 36.3 1744.41 25.4467 1738.1 16.06C1730.91 5.35333 1721.45 0 1709.72 0Z" fill="#FF5555"/>
<path d="M2004.2 120.56H2032.36L2018.28 45.54L2004.2 120.56ZM2007.06 162.14V184.36H1958V162.14H1974.06L2004.42 0H2031.92L2062.5 162.14H2078.56V184.36H2029.5V162.14H2040.06L2036.54 142.78H2000.02L1996.5 162.14H2007.06Z" fill="#FF5555"/>
<path d="M625.523 120.12C625.377 129.067 625.303 132.807 625.303 131.34C625.303 140.14 627.137 147.18 630.803 152.46C635.203 158.767 641.803 161.92 650.603 161.92C658.083 161.92 664.097 159.207 668.643 153.78C672.75 148.793 674.803 142.56 674.803 135.08V26.18H654.783V0H719.243V26.18H700.103V135.08C700.103 149.893 695.63 162.287 686.683 172.26C677.297 182.673 665.27 187.88 650.603 187.88C635.79 187.88 623.617 182.747 614.083 172.48C604.55 162.213 599.857 149.673 600.003 134.86L600.223 120.12H625.523Z" fill="#FF5555"/>
<path d="M804.945 0C793.065 0 783.458 5.57333 776.125 16.72C769.525 26.4 766.225 37.5467 766.225 50.16C766.225 63.2133 771.651 78.9067 782.505 97.24C786.611 104.28 797.831 120.633 816.165 146.3C830.391 166.393 839.851 182.233 844.545 193.82C849.238 182.233 858.698 166.393 872.925 146.3C891.258 120.633 902.478 104.28 906.585 97.24C917.438 78.9067 922.865 63.2133 922.865 50.16C922.865 37.5467 919.565 26.4 912.965 16.72C905.631 5.57333 896.025 0 884.145 0C872.411 0 862.951 5.35333 855.765 16.06C849.311 25.4467 846.085 36.3 846.085 48.62H842.785C842.785 36.3 839.631 25.4467 833.325 16.06C826.138 5.35333 816.678 0 804.945 0Z" fill="#FF5555"/>
<path d="M1087.54 110.55C1096.49 111.576 1105.43 115.683 1114.38 122.87C1119.95 127.27 1127.07 134.31 1135.72 143.99V45.2097C1135.72 39.9297 1133.15 35.163 1128.02 30.9097C1123.03 26.6564 1117.61 24.5297 1111.74 24.5297C1105.87 24.5297 1100.37 26.6564 1095.24 30.9097C1090.11 35.163 1087.54 39.9297 1087.54 45.2097V110.55ZM1124.94 165.11L1096.56 137.39C1094.21 135.043 1091.21 133.576 1087.54 132.99V148.83C1087.54 153.963 1090.11 158.656 1095.24 162.91C1100.37 167.163 1105.87 169.29 1111.74 169.29C1116.29 169.29 1120.69 167.896 1124.94 165.11ZM1173.56 188.43C1164.91 188.43 1158.67 188.063 1154.86 187.33C1150.46 186.303 1146.21 184.25 1142.1 181.17C1132.86 188.65 1122.74 192.39 1111.74 192.39C1099.86 192.39 1089.23 188.136 1079.84 179.63C1070.01 170.83 1065.1 160.563 1065.1 148.83V132.55H1053V111.43C1053.44 111.283 1057.47 110.99 1065.1 110.55V45.2097C1065.1 33.3297 1070.01 22.9897 1079.84 14.1897C1089.23 5.68302 1099.86 1.42969 1111.74 1.42969C1123.62 1.42969 1134.33 5.75636 1143.86 14.4097C1153.54 23.063 1158.38 33.3297 1158.38 45.2097V148.83C1158.38 153.816 1157.35 158.73 1155.3 163.57C1157.35 164.89 1159.26 165.77 1161.02 166.21H1173.56V188.43Z" fill="#FF5555"/>
<path d="M1257.28 0C1245.4 0 1235.8 5.57333 1228.46 16.72C1221.86 26.4 1218.56 37.5467 1218.56 50.16C1218.56 63.2133 1223.99 78.9067 1234.84 97.24C1238.95 104.28 1250.17 120.633 1268.5 146.3C1282.73 166.393 1292.19 182.233 1296.88 193.82C1301.58 182.233 1311.04 166.393 1325.26 146.3C1343.6 120.633 1354.82 104.28 1358.92 97.24C1369.78 78.9067 1375.2 63.2133 1375.2 50.16C1375.2 37.5467 1371.9 26.4 1365.3 16.72C1357.97 5.57333 1348.36 0 1336.48 0C1324.75 0 1315.29 5.35333 1308.1 16.06C1301.65 25.4467 1298.42 36.3 1298.42 48.62H1295.12C1295.12 36.3 1291.97 25.4467 1285.66 16.06C1278.48 5.35333 1269.02 0 1257.28 0Z" fill="#FF5555"/>
<path d="M102.08 187.44H0V161.48H38.94V29.04H0V3.08H64.02V161.48H102.08V187.44Z" fill="#FF5555"/>
<path d="M133.626 127.82V62.4799C133.626 45.4665 139.493 30.8 151.226 18.48C162.959 6.16002 177.259 0 194.126 0C210.993 0 225.293 6.16002 237.026 18.48C248.759 30.8 254.626 45.4665 254.626 62.4799V127.82C254.626 144.833 248.759 159.647 237.026 172.26C225.293 184.727 210.993 190.96 194.126 190.96C177.259 190.96 162.959 184.727 151.226 172.26C139.493 159.647 133.626 144.833 133.626 127.82ZM159.146 62.4799V127.82C159.146 137.793 162.519 146.52 169.266 154C176.159 161.333 184.446 165 194.126 165C203.806 165 212.019 161.26 218.766 153.78C225.659 146.3 229.106 137.647 229.106 127.82V62.4799C229.106 52.6532 225.659 44.1467 218.766 36.96C212.019 29.7734 203.806 26.18 194.126 26.18C184.446 26.18 176.159 29.7734 169.266 36.96C162.519 44.1467 159.146 52.6532 159.146 62.4799Z" fill="#FF5555"/>
<path d="M352.22 0.000218391C340.34 0.000218391 330.733 5.57358 323.4 16.7202C316.8 26.4002 313.5 37.5469 313.5 50.1603C313.5 63.2136 318.927 78.9069 329.78 97.2402C333.887 104.28 345.107 120.634 363.44 146.3C377.667 166.394 387.127 182.234 391.82 193.82C396.513 182.234 405.973 166.394 420.2 146.3C438.533 120.634 449.753 104.28 453.86 97.2402C464.713 78.9069 470.14 63.2136 470.14 50.1603C470.14 37.5469 466.84 26.4002 460.24 16.7202C452.907 5.57358 443.3 0.000218391 431.42 0.000218391C419.687 0.000218391 410.227 5.35358 403.04 16.0602C396.587 25.4469 393.36 36.3002 393.36 48.6202H390.06C390.06 36.3002 386.907 25.4469 380.6 16.0602C373.413 5.35358 363.953 0.000218391 352.22 0.000218391Z" fill="#FF5555"/>
</svg>
