<svg width="2112" height="201" viewBox="0 0 2112 201" fill="none" xmlns="http://www.w3.org/2000/svg">
<path d="M46.2 128.79H74.36L60.28 53.7705L46.2 128.79ZM49.06 170.37V192.59H0V170.37H16.06L46.42 8.23047H73.92L104.5 170.37H120.56V192.59H71.5V170.37H82.06L78.54 151.01H42.02L38.5 170.37H49.06Z" fill="#FF5555"/>
<path d="M204.283 3.5C192.403 3.5 182.796 9.07333 175.463 20.22C168.863 29.9 165.562 41.0467 165.562 53.66C165.562 66.7133 170.989 82.4067 181.843 100.74C185.949 107.78 197.169 124.133 215.503 149.8C229.729 169.893 239.189 185.733 243.882 197.32C248.576 185.733 258.036 169.893 272.263 149.8C290.596 124.133 301.816 107.78 305.923 100.74C316.776 82.4067 322.203 66.7133 322.203 53.66C322.203 41.0467 318.903 29.9 312.303 20.22C304.969 9.07333 295.363 3.5 283.483 3.5C271.749 3.5 262.289 8.85333 255.103 19.56C248.649 28.9467 245.423 39.8 245.423 52.12H242.123C242.123 39.8 238.969 28.9467 232.663 19.56C225.476 8.85333 216.016 3.5 204.283 3.5Z" fill="#FF5555"/>
<path d="M536.583 146.171H560.123V193.691H442.423V181.591C442.423 159.444 450.49 139.571 466.623 121.971C472.93 115.224 487.963 103.124 511.723 85.6709C527.856 73.7909 535.923 63.5975 535.923 55.0909C535.923 47.1709 531.45 41.0109 522.503 36.6109C515.463 33.0909 507.47 31.3309 498.523 31.3309C476.67 31.3309 465.743 38.6642 465.743 53.3309C465.743 56.4109 466.55 59.8575 468.163 63.6709L446.163 72.9109C443.523 66.0175 442.203 59.4909 442.203 53.3309C442.203 38.0775 447.923 26.3442 459.363 18.1309C469.63 10.7975 482.683 7.13086 498.523 7.13086C514.363 7.13086 528.076 11.0909 539.663 19.0109C553.01 27.9575 559.683 39.9842 559.683 55.0909C559.683 69.1709 552.643 82.3709 538.563 94.6909C524.776 105.251 510.99 115.811 497.203 126.371C481.07 139.864 471.316 154.238 467.943 169.491H536.583V146.171Z" fill="#FF5555"/>
<path d="M643.845 3.5C631.965 3.5 622.358 9.07336 615.025 20.22C608.425 29.9 605.125 41.0467 605.125 53.66C605.125 66.7134 610.552 82.4067 621.405 100.74C625.512 107.78 636.732 124.133 655.065 149.8C669.292 169.893 678.752 185.733 683.445 197.32C688.138 185.733 697.598 169.893 711.825 149.8C730.158 124.133 741.378 107.78 745.485 100.74C756.338 82.4067 761.765 66.7134 761.765 53.66C761.765 41.0467 758.465 29.9 751.865 20.22C744.532 9.07336 734.925 3.5 723.045 3.5C711.312 3.5 701.852 8.85336 694.665 19.56C688.212 28.9467 684.985 39.8 684.985 52.12H681.685C681.685 39.8 678.532 28.9467 672.225 19.56C665.038 8.85336 655.578 3.5 643.845 3.5Z" fill="#FF5555"/>
<path d="M1374.12 168.31H1389.08V148.73H1316.04V129.59L1392.38 8.58984H1412.62V124.53H1435.28V148.73H1412.62V168.31H1423.84V192.29H1374.12V168.31ZM1347.5 124.53H1389.08V58.5298L1347.5 124.53Z" fill="white"/>
<path d="M1627.02 83.5C1638.31 83.5 1647.99 87.6067 1656.06 95.82C1664.13 103.887 1668.16 113.567 1668.16 124.86C1668.16 136.153 1664.13 145.833 1656.06 153.9C1647.99 161.967 1638.31 166 1627.02 166C1616.75 166 1607.66 162.627 1599.74 155.88C1591.97 148.987 1587.42 140.407 1586.1 130.14H1580.38C1580.97 156.1 1586.54 177.513 1597.1 194.38H1551.34C1561.9 177.513 1567.47 156.1 1568.06 130.14H1562.34C1561.02 140.407 1556.4 148.987 1548.48 155.88C1540.71 162.627 1531.69 166 1521.42 166C1510.13 166 1500.45 161.967 1492.38 153.9C1484.31 145.833 1480.28 136.153 1480.28 124.86C1480.28 113.567 1484.31 103.887 1492.38 95.82C1500.45 87.6067 1510.13 83.5 1521.42 83.5C1532.27 83.5 1541.66 87.24 1549.58 94.72L1553.54 87.9C1546.65 84.0867 1541.15 78.7333 1537.04 71.84C1532.93 64.9467 1530.88 57.6133 1530.88 49.84C1530.88 37.96 1535.13 27.7667 1543.64 19.26C1552.15 10.7533 1562.34 6.5 1574.22 6.5C1586.1 6.5 1596.29 10.7533 1604.8 19.26C1613.31 27.7667 1617.56 37.96 1617.56 49.84C1617.56 57.6133 1615.51 64.9467 1611.4 71.84C1607.29 78.7333 1601.79 84.0867 1594.9 87.9L1598.86 94.72C1606.78 87.24 1616.17 83.5 1627.02 83.5Z" fill="white"/>
<path d="M942.038 194.02C927.958 194.02 915.344 189.18 904.198 179.5C894.078 170.7 886.598 159.26 881.758 145.18L904.198 137.26C907.278 146.5 911.898 154.053 918.058 159.92C925.098 166.666 933.091 170.04 942.038 170.04C953.184 170.04 962.791 165.64 970.858 156.84C978.924 148.04 982.958 138.066 982.958 126.92C982.958 115.92 979.511 106.973 972.618 100.08C965.724 93.1862 956.704 89.7395 945.558 89.7395C940.424 89.7395 936.391 90.3995 933.458 91.7195C930.524 93.0395 927.004 95.6062 922.898 99.4195L905.958 82.6995L960.738 31.2195H908.158V54.7595H884.398V7.01953H1004.74V22.1995L957.878 66.6395C972.691 69.4262 984.498 76.3929 993.298 87.5395C1002.24 98.5395 1006.72 111.666 1006.72 126.92C1006.72 144.666 1000.34 160.286 987.578 173.78C974.818 187.273 959.638 194.02 942.038 194.02Z" fill="#FF5555"/>
<path d="M1051.72 100.52C1077.83 77.4934 1101.88 45.1533 1123.88 3.5C1145.88 45.1533 1169.93 77.4934 1196.04 100.52C1169.93 123.547 1145.88 155.887 1123.88 197.54C1101.88 155.887 1077.83 123.547 1051.72 100.52Z" fill="#FF5555"/>
<path d="M1847.12 194.65C1833.92 194.65 1821.82 190.103 1810.82 181.01C1801.14 172.65 1793.58 161.87 1788.16 148.67L1810.16 139.43C1813.68 148.083 1818.37 155.196 1824.24 160.77C1831.13 167.37 1838.76 170.67 1847.12 170.67C1858.85 170.67 1868.6 165.17 1876.38 154.17C1883.42 144.343 1886.94 133.416 1886.94 121.39C1886.94 109.216 1883.42 98.3629 1876.38 88.8295C1868.75 78.4162 1859 73.2095 1847.12 73.2095C1837 73.2095 1826.95 78.7095 1816.98 89.7095L1799.82 79.5895V6.76953H1889.14V30.9695H1823.58V54.5095C1831.2 50.9895 1839.05 49.2295 1847.12 49.2295C1865.6 49.2295 1881 56.7829 1893.32 71.8895C1904.9 85.9695 1910.7 102.47 1910.7 121.39C1910.7 140.31 1904.98 156.956 1893.54 171.33C1881.07 186.876 1865.6 194.65 1847.12 194.65Z" fill="white"/>
<path d="M2033.36 0.5C2033.94 4.75333 2042.38 17.1467 2058.66 37.68C2069.22 50.7333 2079.78 63.7867 2090.34 76.84C2098.11 87.5467 2103.39 96.64 2106.18 104.12C2109.4 112.773 2111.02 123.113 2111.02 135.14C2111.02 145.26 2108.08 154.133 2102.22 161.76C2095.76 170.12 2087.62 174.3 2077.8 174.3C2067.97 174.3 2059.9 170.267 2053.6 162.2C2047.73 154.72 2044.8 145.92 2044.8 135.8H2039.52C2039.52 146.8 2040.91 158.02 2043.7 169.46C2046.78 181.927 2050.96 192.413 2056.24 200.92H2010.48C2021.62 183.32 2027.2 161.613 2027.2 135.8H2021.92C2021.92 145.92 2018.98 154.72 2013.12 162.2C2006.81 170.267 1998.74 174.3 1988.92 174.3C1979.09 174.3 1970.95 170.12 1964.5 161.76C1958.63 154.133 1955.7 145.26 1955.7 135.14C1955.7 123.113 1957.31 112.773 1960.54 104.12C1963.32 96.64 1968.6 87.5467 1976.38 76.84C1986.94 63.7867 1997.5 50.7333 2008.06 37.68C2024.34 17.1467 2032.77 4.75333 2033.36 0.5Z" fill="white"/>
</svg>
