<svg width="2232" height="203" viewBox="0 0 2232 203" fill="none" xmlns="http://www.w3.org/2000/svg">
<path d="M0.660002 120.65H0.440001C0.146667 121.236 0 116.03 0 105.03C0 79.2164 3.52 58.463 10.56 42.7697C20.5333 21.2097 36.8867 10.4297 59.62 10.4297C70.7667 10.4297 81.1067 13.4364 90.64 19.4497C99.7333 25.3164 107.14 33.2364 112.86 43.2097L92.4 55.5297C84.48 41.5964 73.5533 34.6297 59.62 34.6297C41.4333 34.6297 30.14 48.1964 25.74 75.3297C35.86 66.383 47.08 61.9097 59.4 61.9097C77.5867 61.9097 92.4 69.463 103.84 84.5697C114.107 98.2097 119.24 114.49 119.24 133.41C119.24 151.01 113.74 166.556 102.74 180.05C91.0067 194.276 76.56 201.39 59.4 201.39C50.8933 201.39 42.02 198.603 32.78 193.03C22.9533 187.163 15.1067 176.383 9.24 160.69C4.69333 148.516 1.83334 135.17 0.660002 120.65ZM59.4 177.41C69.96 177.41 78.76 172.57 85.8 162.89C92.4 154.09 95.7 144.263 95.7 133.41C95.7 121.236 92.6933 110.676 86.68 101.73C79.9333 91.3164 70.84 86.1097 59.4 86.1097C51.04 86.1097 43.4867 90.143 36.74 98.2097C31.1667 104.956 27.06 112.876 24.42 121.97C25.74 135.463 28.6733 147.05 33.22 156.73C39.6733 170.516 48.4 177.41 59.4 177.41Z" fill="#FF5555"/>
<path d="M202.962 9C191.082 9 181.476 14.5734 174.142 25.72C167.542 35.4 164.242 46.5467 164.242 59.16C164.242 72.2134 169.669 87.9067 180.522 106.24C184.629 113.28 195.849 129.633 214.182 155.3C228.409 175.393 237.869 191.233 242.562 202.82C247.256 191.233 256.716 175.393 270.942 155.3C289.276 129.633 300.496 113.28 304.602 106.24C315.456 87.9067 320.882 72.2134 320.882 59.16C320.882 46.5467 317.582 35.4 310.982 25.72C303.649 14.5734 294.042 9 282.162 9C270.429 9 260.969 14.3534 253.782 25.06C247.329 34.4467 244.102 45.3 244.102 57.62H240.802C240.802 45.3 237.649 34.4467 231.342 25.06C224.156 14.3534 214.696 9 202.962 9Z" fill="#FF5555"/>
<path d="M958.72 191.74C942.44 191.74 928.36 186.46 916.48 175.9C904.16 165.047 898 151.627 898 135.64C898 116.867 906.14 101.833 922.42 90.5401C910.687 80.8601 904.82 68.6134 904.82 53.8001C904.82 39.5734 910.32 27.6201 921.32 17.9401C931.88 8.70008 944.347 4.08008 958.72 4.08008C973.093 4.08008 985.56 8.70008 996.12 17.9401C1007.12 27.6201 1012.62 39.5734 1012.62 53.8001C1012.62 68.4667 1006.75 80.7134 995.02 90.5401C1011.3 101.687 1019.44 116.72 1019.44 135.64C1019.44 151.627 1013.35 164.973 1001.18 175.68C989.153 186.387 975 191.74 958.72 191.74ZM958.72 28.0601C950.947 28.0601 944.127 30.4067 938.26 35.1001C931.66 40.0867 928.36 46.3201 928.36 53.8001C928.36 61.2801 931.66 67.5134 938.26 72.5001C944.127 77.1934 950.947 79.5401 958.72 79.5401C966.493 79.5401 973.313 77.1934 979.18 72.5001C985.78 67.5134 989.08 61.2801 989.08 53.8001C989.08 46.3201 985.78 40.0867 979.18 35.1001C973.313 30.4067 966.493 28.0601 958.72 28.0601ZM958.72 103.52C949.187 103.52 940.753 106.453 933.42 112.32C925.5 118.48 921.54 126.253 921.54 135.64C921.54 144.88 925.5 152.653 933.42 158.96C940.753 164.68 949.187 167.54 958.72 167.54C968.253 167.54 976.687 164.68 984.02 158.96C991.94 152.653 995.9 144.88 995.9 135.64C995.9 126.253 991.94 118.48 984.02 112.32C976.687 106.453 968.253 103.52 958.72 103.52Z" fill="#FF5555"/>
<path d="M1103.16 1C1091.28 1 1081.67 6.57333 1074.34 17.72C1067.74 27.4 1064.44 38.5467 1064.44 51.16C1064.44 64.2133 1069.86 79.9067 1080.72 98.24C1084.82 105.28 1096.04 121.633 1114.38 147.3C1128.6 167.393 1138.06 183.233 1142.76 194.82C1147.45 183.233 1156.91 167.393 1171.14 147.3C1189.47 121.633 1200.69 105.28 1204.8 98.24C1215.65 79.9067 1221.08 64.2133 1221.08 51.16C1221.08 38.5467 1217.78 27.4 1211.18 17.72C1203.84 6.57333 1194.24 1 1182.36 1C1170.62 1 1161.16 6.35333 1153.98 17.06C1147.52 26.4467 1144.3 37.3 1144.3 49.62H1141C1141 37.3 1137.84 26.4467 1131.54 17.06C1124.35 6.35333 1114.89 1 1103.16 1Z" fill="#FF5555"/>
<path d="M1862.08 187.44H1760V161.48H1798.94V29.04H1760V3.08H1824.02V161.48H1862.08V187.44Z" fill="#FF5555"/>
<path d="M1893.63 127.82V62.48C1893.63 45.4667 1899.49 30.8 1911.23 18.48C1922.96 6.16 1937.26 0 1954.13 0C1970.99 0 1985.29 6.16 1997.03 18.48C2008.76 30.8 2014.63 45.4667 2014.63 62.48V127.82C2014.63 144.833 2008.76 159.647 1997.03 172.26C1985.29 184.727 1970.99 190.96 1954.13 190.96C1937.26 190.96 1922.96 184.727 1911.23 172.26C1899.49 159.647 1893.63 144.833 1893.63 127.82ZM1919.15 62.48V127.82C1919.15 137.793 1922.52 146.52 1929.27 154C1936.16 161.333 1944.45 165 1954.13 165C1963.81 165 1972.02 161.26 1978.77 153.78C1985.66 146.3 1989.11 137.647 1989.11 127.82V62.48C1989.11 52.6533 1985.66 44.1467 1978.77 36.96C1972.02 29.7733 1963.81 26.18 1954.13 26.18C1944.45 26.18 1936.16 29.7733 1929.27 36.96C1922.52 44.1467 1919.15 52.6533 1919.15 62.48Z" fill="#FF5555"/>
<path d="M2113.76 1.58008C2101.88 1.58008 2092.27 7.15341 2084.94 18.3001C2078.34 27.9801 2075.04 39.1267 2075.04 51.7401C2075.04 64.7934 2080.47 80.4868 2091.32 98.8201C2095.43 105.86 2106.65 122.213 2124.98 147.88C2139.21 167.973 2148.67 183.813 2153.36 195.4C2158.05 183.813 2167.51 167.973 2181.74 147.88C2200.07 122.213 2211.29 105.86 2215.4 98.8201C2226.25 80.4868 2231.68 64.7934 2231.68 51.7401C2231.68 39.1267 2228.38 27.9801 2221.78 18.3001C2214.45 7.15341 2204.84 1.58008 2192.96 1.58008C2181.23 1.58008 2171.77 6.93341 2164.58 17.6401C2158.13 27.0267 2154.9 37.8801 2154.9 50.2001H2151.6C2151.6 37.8801 2148.45 27.0267 2142.14 17.6401C2134.95 6.93341 2125.49 1.58008 2113.76 1.58008Z" fill="#FF5555"/>
<path d="M442 50.06V1H549.58L561.68 22.12C531.613 65.24 510.713 119.213 498.98 184.04H473.24C483.653 124.64 501.913 72.28 528.02 26.96H467.3V50.06H442Z" fill="#FF5555"/>
<path d="M643.298 1C631.418 1 621.811 6.57336 614.478 17.72C607.878 27.4 604.578 38.5467 604.578 51.16C604.578 64.2134 610.005 79.9067 620.858 98.24C624.965 105.28 636.185 121.633 654.518 147.3C668.745 167.393 678.205 183.233 682.898 194.82C687.591 183.233 697.051 167.393 711.278 147.3C729.611 121.633 740.831 105.28 744.938 98.24C755.791 79.9067 761.218 64.2134 761.218 51.16C761.218 38.5467 757.918 27.4 751.318 17.72C743.985 6.57336 734.378 1 722.498 1C710.765 1 701.305 6.35336 694.118 17.06C687.665 26.4467 684.438 37.3 684.438 49.62H681.138C681.138 37.3 677.985 26.4467 671.678 17.06C664.491 6.35336 655.031 1 643.298 1Z" fill="#FF5555"/>
<path d="M1424.3 123.11C1414.03 131.323 1402.44 135.43 1389.54 135.43C1372.23 135.43 1357.78 128.61 1346.2 114.97C1335.05 101.77 1329.48 86.4434 1329.48 68.9901C1329.48 51.3901 1335.05 36.0634 1346.2 23.0101C1357.78 9.22341 1372.23 2.33008 1389.54 2.33008C1410.95 2.33008 1427.01 13.4034 1437.72 35.5501C1445.93 52.7101 1450.04 73.3167 1450.04 97.3701C1450.04 122.597 1446 143.497 1437.94 160.07C1427.38 181.923 1410.8 192.85 1388.22 192.85C1366.22 192.85 1348.76 181.557 1335.86 158.97L1356.54 146.87C1364.75 161.39 1375.31 168.65 1388.22 168.65C1407.43 168.65 1419.46 153.47 1424.3 123.11ZM1389.54 26.5301C1378.98 26.5301 1370.18 31.0767 1363.14 40.1701C1356.54 48.5301 1353.24 58.1367 1353.24 68.9901C1353.24 79.8434 1356.54 89.4501 1363.14 97.8101C1370.18 106.903 1378.98 111.45 1389.54 111.45C1398.48 111.45 1406.26 108.003 1412.86 101.11C1418.72 94.9501 1422.76 87.2501 1424.96 78.0101C1420.7 43.6901 1408.9 26.5301 1389.54 26.5301Z" fill="#FF5555"/>
<path d="M1533.76 0.679688C1521.88 0.679688 1512.27 6.25302 1504.94 17.3997C1498.34 27.0797 1495.04 38.2264 1495.04 50.8397C1495.04 63.893 1500.47 79.5863 1511.32 97.9197C1515.43 104.96 1526.65 121.313 1544.98 146.98C1559.21 167.073 1568.67 182.913 1573.36 194.5C1578.05 182.913 1587.51 167.073 1601.74 146.98C1620.07 121.313 1631.29 104.96 1635.4 97.9197C1646.25 79.5863 1651.68 63.893 1651.68 50.8397C1651.68 38.2264 1648.38 27.0797 1641.78 17.3997C1634.45 6.25302 1624.84 0.679688 1612.96 0.679688C1601.23 0.679688 1591.77 6.03302 1584.58 16.7397C1578.13 26.1264 1574.9 36.9797 1574.9 49.2997H1571.6C1571.6 36.9797 1568.45 26.1264 1562.14 16.7397C1554.95 6.03302 1545.49 0.679688 1533.76 0.679688Z" fill="#FF5555"/>
</svg>
