<svg width="1222" height="195" viewBox="0 0 1222 195" fill="none" xmlns="http://www.w3.org/2000/svg">
<path d="M0.660002 112.57H0.440001C0.146667 113.156 0 107.95 0 96.9496C0 71.1363 3.52 50.3829 10.56 34.6896C20.5333 13.1296 36.8867 2.34961 59.62 2.34961C70.7667 2.34961 81.1067 5.35628 90.64 11.3696C99.7333 17.2363 107.14 25.1563 112.86 35.1296L92.4 47.4496C84.48 33.5163 73.5533 26.5496 59.62 26.5496C41.4333 26.5496 30.14 40.1163 25.74 67.2496C35.86 58.3029 47.08 53.8296 59.4 53.8296C77.5867 53.8296 92.4 61.3829 103.84 76.4896C114.107 90.1296 119.24 106.41 119.24 125.33C119.24 142.93 113.74 158.476 102.74 171.97C91.0067 186.196 76.56 193.31 59.4 193.31C50.8933 193.31 42.02 190.523 32.78 184.95C22.9533 179.083 15.1067 168.303 9.24 152.61C4.69333 140.436 1.83334 127.09 0.660002 112.57ZM59.4 169.33C69.96 169.33 78.76 164.49 85.8 154.81C92.4 146.01 95.7 136.183 95.7 125.33C95.7 113.156 92.6933 102.596 86.68 93.6496C79.9333 83.2363 70.84 78.0296 59.4 78.0296C51.04 78.0296 43.4867 82.0629 36.74 90.1296C31.1667 96.8763 27.06 104.796 24.42 113.89C25.74 127.383 28.6733 138.97 33.22 148.65C39.6733 162.436 48.4 169.33 59.4 169.33Z" fill="#FF5555"/>
<path d="M202.962 0.919922C191.082 0.919922 181.476 6.49328 174.142 17.64C167.542 27.32 164.242 38.4666 164.242 51.08C164.242 64.1333 169.669 79.8266 180.522 98.1599C184.629 105.2 195.849 121.553 214.182 147.22C228.409 167.313 237.869 183.153 242.562 194.74C247.256 183.153 256.716 167.313 270.942 147.22C289.276 121.553 300.496 105.2 304.602 98.1599C315.456 79.8266 320.882 64.1333 320.882 51.08C320.882 38.4666 317.582 27.32 310.982 17.64C303.649 6.49328 294.042 0.919922 282.162 0.919922C270.429 0.919922 260.969 6.27328 253.782 16.9799C247.329 26.3666 244.102 37.2199 244.102 49.5399H240.802C240.802 37.2199 237.649 26.3666 231.342 16.9799C224.156 6.27328 214.696 0.919922 202.962 0.919922Z" fill="#FF5555"/>
<path d="M441.543 112.679H441.323C441.029 113.266 440.883 108.059 440.883 97.059C440.883 71.2456 444.403 50.4923 451.443 34.799C461.416 13.239 477.769 2.45898 500.503 2.45898C511.649 2.45898 521.989 5.46565 531.523 11.479C540.616 17.3456 548.023 25.2656 553.743 35.239L533.283 47.559C525.363 33.6257 514.436 26.659 500.503 26.659C482.316 26.659 471.023 40.2257 466.623 67.359C476.743 58.4123 487.963 53.939 500.283 53.939C518.469 53.939 533.283 61.4923 544.723 76.599C554.989 90.239 560.123 106.519 560.123 125.439C560.123 143.039 554.623 158.586 543.623 172.079C531.889 186.306 517.443 193.419 500.283 193.419C491.776 193.419 482.903 190.632 473.663 185.059C463.836 179.192 455.989 168.412 450.123 152.719C445.576 140.546 442.716 127.199 441.543 112.679ZM500.283 169.439C510.843 169.439 519.643 164.599 526.683 154.919C533.283 146.119 536.583 136.292 536.583 125.439C536.583 113.266 533.576 102.706 527.563 93.759C520.816 83.3456 511.723 78.139 500.283 78.139C491.923 78.139 484.369 82.1723 477.623 90.239C472.049 96.9857 467.943 104.906 465.303 113.999C466.623 127.492 469.556 139.079 474.103 148.759C480.556 162.546 489.283 169.439 500.283 169.439Z" fill="#FF5555"/>
<path d="M605.125 97.9399C631.232 74.9132 655.285 42.5733 677.285 0.919922C699.285 42.5733 723.338 74.9132 749.445 97.9399C723.338 120.967 699.285 153.307 677.285 194.96C655.285 153.307 631.232 120.967 605.125 97.9399Z" fill="#FF5555"/>
<path d="M870.097 111.14H869.877C869.584 111.727 869.438 106.52 869.438 95.5199C869.438 69.7066 872.958 48.9533 879.998 33.2599C889.971 11.6999 906.324 0.919922 929.058 0.919922C940.204 0.919922 950.544 3.92659 960.078 9.93992C969.171 15.8066 976.578 23.7266 982.298 33.6999L961.838 46.0199C953.918 32.0866 942.991 25.1199 929.058 25.1199C910.871 25.1199 899.578 38.6866 895.178 65.8199C905.298 56.8733 916.518 52.3999 928.838 52.3999C947.024 52.3999 961.838 59.9533 973.278 75.0599C983.544 88.6999 988.677 104.98 988.677 123.9C988.677 141.5 983.178 157.047 972.178 170.54C960.444 184.767 945.998 191.88 928.838 191.88C920.331 191.88 911.457 189.093 902.217 183.52C892.391 177.653 884.544 166.873 878.678 151.18C874.131 139.007 871.271 125.66 870.097 111.14ZM928.838 167.9C939.398 167.9 948.198 163.06 955.238 153.38C961.838 144.58 965.138 134.753 965.138 123.9C965.138 111.727 962.131 101.167 956.118 92.2199C949.371 81.8066 940.278 76.5999 928.838 76.5999C920.478 76.5999 912.924 80.6333 906.178 88.6999C900.604 95.4466 896.498 103.367 893.858 112.46C895.178 125.953 898.111 137.54 902.658 147.22C909.111 161.007 917.838 167.9 928.838 167.9Z" fill="white"/>
<path d="M1180.42 79.459C1191.71 79.459 1201.39 83.5657 1209.46 91.779C1217.53 99.8457 1221.56 109.526 1221.56 120.819C1221.56 132.112 1217.53 141.792 1209.46 149.859C1201.39 157.926 1191.71 161.959 1180.42 161.959C1170.15 161.959 1161.06 158.586 1153.14 151.839C1145.37 144.946 1140.82 136.366 1139.5 126.099H1133.78C1134.37 152.059 1139.94 173.472 1150.5 190.339H1104.74C1115.3 173.472 1120.87 152.059 1121.46 126.099H1115.74C1114.42 136.366 1109.8 144.946 1101.88 151.839C1094.11 158.586 1085.09 161.959 1074.82 161.959C1063.53 161.959 1053.85 157.926 1045.78 149.859C1037.71 141.792 1033.68 132.112 1033.68 120.819C1033.68 109.526 1037.71 99.8457 1045.78 91.779C1053.85 83.5657 1063.53 79.459 1074.82 79.459C1085.67 79.459 1095.06 83.199 1102.98 90.679L1106.94 83.859C1100.05 80.0456 1094.55 74.6923 1090.44 67.799C1086.33 60.9056 1084.28 53.5723 1084.28 45.799C1084.28 33.919 1088.53 23.7257 1097.04 15.219C1105.55 6.71232 1115.74 2.45898 1127.62 2.45898C1139.5 2.45898 1149.69 6.71232 1158.2 15.219C1166.71 23.7257 1170.96 33.919 1170.96 45.799C1170.96 53.5723 1168.91 60.9056 1164.8 67.799C1160.69 74.6923 1155.19 80.0456 1148.3 83.859L1152.26 90.679C1160.18 83.199 1169.57 79.459 1180.42 79.459Z" fill="white"/>
</svg>
