<svg width="1681" height="202" viewBox="0 0 1681 202" fill="none" xmlns="http://www.w3.org/2000/svg">
<path d="M945.125 127.05C944.978 135.996 944.905 139.736 944.905 138.27C944.905 147.07 946.738 154.11 950.405 159.39C954.805 165.696 961.405 168.85 970.205 168.85C977.685 168.85 983.698 166.136 988.245 160.71C992.352 155.723 994.405 149.49 994.405 142.01V33.1097H974.385V6.92969H1038.84V33.1097H1019.7V142.01C1019.7 156.823 1015.23 169.216 1006.28 179.19C996.898 189.603 984.872 194.81 970.205 194.81C955.392 194.81 943.218 189.676 933.685 179.41C924.152 169.143 919.458 156.603 919.605 141.79L919.825 127.05H945.125Z" fill="#FF5555"/>
<path d="M1122.56 3.95898C1110.68 3.95898 1101.08 9.53231 1093.74 20.679C1087.14 30.359 1083.84 41.5057 1083.84 54.119C1083.84 67.1723 1089.27 82.8657 1100.12 101.199C1104.23 108.239 1115.45 124.592 1133.78 150.259C1148.01 170.352 1157.47 186.192 1162.16 197.779C1166.86 186.192 1176.32 170.352 1190.54 150.259C1208.88 124.592 1220.1 108.239 1224.2 101.199C1235.06 82.8657 1240.48 67.1723 1240.48 54.119C1240.48 41.5057 1237.18 30.359 1230.58 20.679C1223.25 9.53231 1213.64 3.95898 1201.76 3.95898C1190.03 3.95898 1180.57 9.31231 1173.38 20.019C1166.93 29.4057 1163.7 40.259 1163.7 52.579H1160.4C1160.4 40.259 1157.25 29.4057 1150.94 20.019C1143.76 9.31231 1134.3 3.95898 1122.56 3.95898Z" fill="#FF5555"/>
<path d="M58.96 194.81C45.76 194.81 33.66 190.263 22.66 181.17C12.98 172.81 5.42667 162.03 0 148.83L22 139.59C25.52 148.243 30.2133 155.356 36.08 160.93C42.9733 167.53 50.6 170.83 58.96 170.83C70.6933 170.83 80.4467 165.33 88.22 154.33C95.26 144.503 98.78 133.576 98.78 121.55C98.78 109.376 95.26 98.523 88.22 88.9897C80.5933 78.5764 70.84 73.3697 58.96 73.3697C48.84 73.3697 38.7933 78.8697 28.82 89.8697L11.66 79.7497V6.92969H100.98V31.1297H35.42V54.6697C43.0467 51.1497 50.8933 49.3897 58.96 49.3897C77.44 49.3897 92.84 56.943 105.16 72.0497C116.747 86.1297 122.54 102.63 122.54 121.55C122.54 140.47 116.82 157.116 105.38 171.49C92.9133 187.036 77.44 194.81 58.96 194.81Z" fill="#FF5555"/>
<path d="M206.259 3.95898C194.379 3.95898 184.772 9.53231 177.439 20.679C170.839 30.359 167.539 41.5057 167.539 54.119C167.539 67.1723 172.966 82.8657 183.819 101.199C187.926 108.239 199.146 124.592 217.479 150.259C231.706 170.352 241.166 186.192 245.859 197.779C250.552 186.192 260.012 170.352 274.239 150.259C292.572 124.592 303.792 108.239 307.899 101.199C318.752 82.8657 324.179 67.1723 324.179 54.119C324.179 41.5057 320.879 30.359 314.279 20.679C306.946 9.53231 297.339 3.95898 285.459 3.95898C273.726 3.95898 264.266 9.31231 257.079 20.019C250.626 29.4057 247.399 40.259 247.399 52.579H244.099C244.099 40.259 240.946 29.4057 234.639 20.019C227.452 9.31231 217.992 3.95898 206.259 3.95898Z" fill="#FF5555"/>
<path d="M503.14 191.839C489.94 191.839 477.84 187.292 466.84 178.199C457.16 169.839 449.606 159.059 444.18 145.859L466.18 136.619C469.7 145.272 474.393 152.386 480.26 157.959C487.153 164.559 494.78 167.859 503.14 167.859C514.873 167.859 524.626 162.359 532.4 151.359C539.44 141.532 542.96 130.606 542.96 118.579C542.96 106.406 539.44 95.5523 532.4 86.019C524.773 75.6056 515.02 70.399 503.14 70.399C493.02 70.399 482.973 75.899 473 86.899L455.84 76.779V3.95898H545.16V28.159H479.6V51.699C487.226 48.179 495.073 46.419 503.14 46.419C521.62 46.419 537.02 53.9723 549.34 69.079C560.926 83.159 566.72 99.659 566.72 118.579C566.72 137.499 561 154.146 549.56 168.519C537.093 184.066 521.62 191.839 503.14 191.839Z" fill="white"/>
<path d="M758.459 80.959C769.752 80.959 779.432 85.0657 787.499 93.279C795.565 101.346 799.599 111.026 799.599 122.319C799.599 133.612 795.565 143.292 787.499 151.359C779.432 159.426 769.752 163.459 758.459 163.459C748.192 163.459 739.099 160.086 731.179 153.339C723.405 146.446 718.859 137.866 717.539 127.599H711.819C712.405 153.559 717.979 174.972 728.539 191.839H682.779C693.339 174.972 698.912 153.559 699.499 127.599H693.779C692.459 137.866 687.839 146.446 679.919 153.339C672.145 160.086 663.125 163.459 652.859 163.459C641.565 163.459 631.885 159.426 623.819 151.359C615.752 143.292 611.719 133.612 611.719 122.319C611.719 111.026 615.752 101.346 623.819 93.279C631.885 85.0657 641.565 80.959 652.859 80.959C663.712 80.959 673.099 84.699 681.019 92.179L684.979 85.359C678.085 81.5457 672.585 76.1923 668.479 69.299C664.372 62.4057 662.319 55.0723 662.319 47.299C662.319 35.419 666.572 25.2257 675.079 16.719C683.585 8.21232 693.779 3.95898 705.659 3.95898C717.539 3.95898 727.732 8.21232 736.239 16.719C744.745 25.2257 748.999 35.419 748.999 47.299C748.999 55.0723 746.945 62.4057 742.839 69.299C738.732 76.1923 733.232 81.5457 726.339 85.359L730.299 92.179C738.219 84.699 747.605 80.959 758.459 80.959Z" fill="white"/>
<path d="M1386.01 127.349C1385.86 136.295 1385.79 140.035 1385.79 138.569C1385.79 147.369 1387.62 154.409 1391.29 159.689C1395.69 165.995 1402.29 169.149 1411.09 169.149C1418.57 169.149 1424.58 166.435 1429.13 161.009C1433.23 156.022 1435.29 149.789 1435.29 142.309V33.4085H1415.27V7.22852H1479.73V33.4085H1460.59V142.309C1460.59 157.122 1456.11 169.515 1447.17 179.489C1437.78 189.902 1425.75 195.109 1411.09 195.109C1396.27 195.109 1384.1 189.975 1374.57 179.709C1365.03 169.442 1360.34 156.902 1360.49 142.089L1360.71 127.349H1386.01Z" fill="white"/>
<path d="M1602.39 0.958984C1602.97 5.21232 1611.41 17.6056 1627.69 38.139C1638.25 51.1923 1648.81 64.2456 1659.37 77.299C1667.14 88.0056 1672.42 97.099 1675.21 104.579C1678.43 113.232 1680.05 123.572 1680.05 135.599C1680.05 145.719 1677.11 154.592 1671.25 162.219C1664.79 170.579 1656.65 174.759 1646.83 174.759C1637 174.759 1628.93 170.726 1622.63 162.659C1616.76 155.179 1613.83 146.379 1613.83 136.259H1608.55C1608.55 147.259 1609.94 158.479 1612.73 169.919C1615.81 182.386 1619.99 192.872 1625.27 201.379H1579.51C1590.65 183.779 1596.23 162.072 1596.23 136.259H1590.95C1590.95 146.379 1588.01 155.179 1582.15 162.659C1575.84 170.726 1567.77 174.759 1557.95 174.759C1548.12 174.759 1539.98 170.579 1533.53 162.219C1527.66 154.592 1524.73 145.719 1524.73 135.599C1524.73 123.572 1526.34 113.232 1529.57 104.579C1532.35 97.099 1537.63 88.0056 1545.41 77.299C1555.97 64.2456 1566.53 51.1923 1577.09 38.139C1593.37 17.6056 1601.8 5.21232 1602.39 0.958984Z" fill="white"/>
</svg>
