<svg width="250" height="75" viewBox="0 0 250 75" fill="none" xmlns="http://www.w3.org/2000/svg">
<rect width="250" height="75" fill="black"/>
<rect x="17" y="17" width="95" height="43" rx="9" fill="#E15241" stroke="#D64332" stroke-width="4"/>
<path d="M43.0114 46V34.3636H50.7159V36.392H45.4716V39.1648H50.2045V41.1932H45.4716V46H43.0114ZM63.0639 40.1818C63.0639 41.4508 62.8234 42.5303 62.3423 43.4205C61.8651 44.3106 61.2135 44.9905 60.3878 45.4602C59.5658 45.9261 58.6416 46.1591 57.6151 46.1591C56.581 46.1591 55.6529 45.9242 54.831 45.4545C54.009 44.9848 53.3594 44.3049 52.8821 43.4148C52.4048 42.5246 52.1662 41.447 52.1662 40.1818C52.1662 38.9129 52.4048 37.8333 52.8821 36.9432C53.3594 36.053 54.009 35.375 54.831 34.9091C55.6529 34.4394 56.581 34.2045 57.6151 34.2045C58.6416 34.2045 59.5658 34.4394 60.3878 34.9091C61.2135 35.375 61.8651 36.053 62.3423 36.9432C62.8234 37.8333 63.0639 38.9129 63.0639 40.1818ZM60.5696 40.1818C60.5696 39.3598 60.4465 38.6667 60.2003 38.1023C59.9579 37.5379 59.6151 37.1098 59.1719 36.8182C58.7287 36.5265 58.2098 36.3807 57.6151 36.3807C57.0204 36.3807 56.5014 36.5265 56.0582 36.8182C55.6151 37.1098 55.2704 37.5379 55.0241 38.1023C54.7817 38.6667 54.6605 39.3598 54.6605 40.1818C54.6605 41.0038 54.7817 41.697 55.0241 42.2614C55.2704 42.8258 55.6151 43.2538 56.0582 43.5455C56.5014 43.8371 57.0204 43.983 57.6151 43.983C58.2098 43.983 58.7287 43.8371 59.1719 43.5455C59.6151 43.2538 59.9579 42.8258 60.2003 42.2614C60.4465 41.697 60.5696 41.0038 60.5696 40.1818ZM64.8864 46V34.3636H67.3466V43.9716H72.3352V46H64.8864ZM78.0895 46H73.9645V34.3636H78.1236C79.294 34.3636 80.3016 34.5966 81.1463 35.0625C81.991 35.5246 82.6406 36.1894 83.0952 37.0568C83.5535 37.9242 83.7827 38.9621 83.7827 40.1705C83.7827 41.3826 83.5535 42.4242 83.0952 43.2955C82.6406 44.1667 81.9872 44.8352 81.1349 45.3011C80.2865 45.767 79.2713 46 78.0895 46ZM76.4247 43.892H77.9872C78.7145 43.892 79.3262 43.7633 79.8224 43.5057C80.3224 43.2443 80.6974 42.8409 80.9474 42.2955C81.2012 41.7462 81.3281 41.0379 81.3281 40.1705C81.3281 39.3106 81.2012 38.608 80.9474 38.0625C80.6974 37.517 80.3243 37.1155 79.8281 36.858C79.3319 36.6004 78.7202 36.4716 77.9929 36.4716H76.4247V43.892Z" fill="white"/>
<rect x="137" y="17" width="95" height="43" rx="9" fill="#97C15C" stroke="#79A143" stroke-width="4"/>
<path d="M170.011 45V33.3636H174.67C175.527 33.3636 176.241 33.4905 176.812 33.7443C177.384 33.9981 177.814 34.3504 178.102 34.8011C178.39 35.2481 178.534 35.7633 178.534 36.3466C178.534 36.8011 178.443 37.2008 178.261 37.5455C178.08 37.8864 177.83 38.1667 177.511 38.3864C177.197 38.6023 176.837 38.7557 176.432 38.8466V38.9602C176.875 38.9792 177.29 39.1042 177.676 39.3352C178.066 39.5663 178.383 39.8902 178.625 40.3068C178.867 40.7197 178.989 41.2121 178.989 41.7841C178.989 42.4015 178.835 42.9527 178.528 43.4375C178.225 43.9186 177.777 44.2992 177.182 44.5795C176.587 44.8598 175.854 45 174.983 45H170.011ZM172.472 42.9886H174.477C175.163 42.9886 175.663 42.858 175.977 42.5966C176.292 42.3314 176.449 41.9792 176.449 41.5398C176.449 41.2178 176.371 40.9337 176.216 40.6875C176.061 40.4413 175.839 40.2481 175.551 40.108C175.267 39.9678 174.928 39.8977 174.534 39.8977H172.472V42.9886ZM172.472 38.233H174.295C174.633 38.233 174.932 38.1742 175.193 38.0568C175.458 37.9356 175.667 37.7652 175.818 37.5455C175.973 37.3258 176.051 37.0625 176.051 36.7557C176.051 36.3352 175.902 35.9962 175.602 35.7386C175.307 35.4811 174.886 35.3523 174.341 35.3523H172.472V38.233ZM180.589 45V33.3636H188.43V35.392H183.05V38.1648H188.027V40.1932H183.05V42.9716H188.453V45H180.589ZM189.943 35.392V33.3636H199.5V35.392H195.938V45H193.506V35.392H189.943Z" fill="white"/>
</svg>
