<svg width="99" height="47" viewBox="0 0 99 47" fill="none" xmlns="http://www.w3.org/2000/svg">
<rect x="2" y="2" width="95" height="43" rx="9" fill="#7C34BC" stroke="#562E79" stroke-width="4"/>
<path d="M13.8217 29V19.5455H20.1925V21.1935H15.8207V23.4464H19.8647V25.0945H15.8207V27.3519H20.2109V29H13.8217ZM23.656 19.5455L25.5626 22.7678H25.6365L27.5523 19.5455H29.8097L26.9244 24.2727L29.8744 29H27.5754L25.6365 25.7731H25.5626L23.6237 29H21.3339L24.2931 24.2727L21.3893 19.5455H23.656ZM38.9723 22.8555H36.9503C36.9134 22.5939 36.8379 22.3615 36.7241 22.1584C36.6102 21.9522 36.464 21.7768 36.2855 21.6321C36.107 21.4875 35.9008 21.3767 35.6669 21.2997C35.4361 21.2228 35.1853 21.1843 34.9144 21.1843C34.4251 21.1843 33.9988 21.3059 33.6357 21.549C33.2725 21.7891 32.9909 22.1399 32.7908 22.6016C32.5908 23.0601 32.4908 23.6172 32.4908 24.2727C32.4908 24.9467 32.5908 25.513 32.7908 25.9716C32.994 26.4302 33.2771 26.7764 33.6403 27.0103C34.0034 27.2442 34.4235 27.3612 34.9006 27.3612C35.1683 27.3612 35.4161 27.3258 35.6438 27.255C35.8746 27.1842 36.0793 27.0811 36.2578 26.9457C36.4363 26.8072 36.584 26.6394 36.701 26.4425C36.821 26.2455 36.9041 26.0208 36.9503 25.7685L38.9723 25.7777C38.92 26.2116 38.7892 26.6302 38.5799 27.0334C38.3737 27.4335 38.0952 27.792 37.7443 28.109C37.3965 28.4229 36.9811 28.6722 36.4979 28.8569C36.0178 29.0385 35.4746 29.1293 34.8683 29.1293C34.025 29.1293 33.271 28.9384 32.6062 28.5568C31.9445 28.1752 31.4213 27.6228 31.0366 26.8995C30.6549 26.1763 30.4641 25.3007 30.4641 24.2727C30.4641 23.2417 30.658 22.3646 31.0458 21.6413C31.4336 20.9181 31.9599 20.3672 32.6246 19.9886C33.2894 19.607 34.0373 19.4162 34.8683 19.4162C35.4161 19.4162 35.9239 19.4931 36.3917 19.647C36.8626 19.8009 37.2796 20.0256 37.6428 20.321C38.0059 20.6134 38.3014 20.9719 38.5291 21.3967C38.7599 21.8214 38.9077 22.3076 38.9723 22.8555ZM40.4057 29V19.5455H42.4047V23.4464H46.4625V19.5455H48.4569V29H46.4625V25.0945H42.4047V29H40.4057ZM51.7346 29H49.5925L52.8564 19.5455H55.4324L58.6916 29H56.5495L54.1813 21.706H54.1074L51.7346 29ZM51.6007 25.2837H56.6603V26.8441H51.6007V25.2837ZM67.7376 19.5455V29H66.011L61.8977 23.0494H61.8285V29H59.8295V19.5455H61.5838L65.6648 25.4915H65.7479V19.5455H67.7376ZM75.6583 22.6016C75.5937 22.3769 75.5029 22.1784 75.3859 22.006C75.269 21.8306 75.1259 21.6829 74.9566 21.5629C74.7904 21.4397 74.5996 21.3459 74.3841 21.2812C74.1718 21.2166 73.9363 21.1843 73.6778 21.1843C73.1946 21.1843 72.7699 21.3043 72.4037 21.5444C72.0405 21.7844 71.7574 22.1338 71.5542 22.5923C71.3511 23.0478 71.2496 23.6049 71.2496 24.2635C71.2496 24.9221 71.3496 25.4822 71.5496 25.9439C71.7497 26.4055 72.0328 26.7579 72.3991 27.0011C72.7653 27.2411 73.1977 27.3612 73.6963 27.3612C74.1487 27.3612 74.5349 27.2811 74.855 27.1211C75.1782 26.958 75.4244 26.7287 75.5937 26.4332C75.766 26.1378 75.8522 25.7885 75.8522 25.3853L76.2584 25.4453H73.8209V23.9403H77.7773V25.1314C77.7773 25.9624 77.6018 26.6764 77.251 27.2734C76.9001 27.8674 76.4169 28.326 75.8014 28.6491C75.1859 28.9692 74.4811 29.1293 73.6871 29.1293C72.8007 29.1293 72.022 28.9338 71.3511 28.543C70.6802 28.149 70.157 27.5904 69.7815 26.8672C69.4091 26.1409 69.2229 25.2791 69.2229 24.282C69.2229 23.5156 69.3337 22.8324 69.5553 22.2322C69.78 21.629 70.0939 21.1181 70.4971 20.6996C70.9002 20.281 71.3696 19.9625 71.9051 19.744C72.4406 19.5254 73.0207 19.4162 73.6455 19.4162C74.181 19.4162 74.6796 19.4947 75.1412 19.6516C75.6029 19.8055 76.0122 20.024 76.3692 20.3072C76.7293 20.5903 77.0232 20.9273 77.251 21.3182C77.4787 21.706 77.6249 22.1338 77.6895 22.6016H75.6583ZM79.2788 29V19.5455H85.6495V21.1935H81.2777V23.4464H85.3217V25.0945H81.2777V27.3519H85.668V29H79.2788Z" fill="white"/>
</svg>
