<svg width="99" height="47" viewBox="0 0 99 47" fill="none" xmlns="http://www.w3.org/2000/svg">
<rect x="2" y="2" width="95" height="43" rx="9" fill="#4BA6EE" stroke="#4397D8" stroke-width="4"/>
<path d="M13.8207 19.5455V29H11.8217V19.5455H13.8207ZM23.3733 19.5455V29H21.6468L17.5335 23.0494H17.4642V29H15.4653V19.5455H17.2195L21.3005 25.4915H21.3836V19.5455H23.3733ZM30.1538 22.2646C30.1168 21.8922 29.9583 21.6029 29.6783 21.3967C29.3982 21.1905 29.0181 21.0874 28.538 21.0874C28.2118 21.0874 27.9363 21.1335 27.7116 21.2259C27.487 21.3151 27.3146 21.4397 27.1946 21.5998C27.0777 21.7598 27.0192 21.9414 27.0192 22.1445C27.013 22.3138 27.0484 22.4615 27.1254 22.5877C27.2054 22.7139 27.3146 22.8232 27.4531 22.9155C27.5916 23.0047 27.7517 23.0832 27.9332 23.1509C28.1148 23.2156 28.3087 23.271 28.5149 23.3171L29.3643 23.5202C29.7768 23.6126 30.1553 23.7357 30.5 23.8896C30.8447 24.0434 31.1432 24.2327 31.3956 24.4574C31.648 24.6821 31.8434 24.9467 31.9819 25.2514C32.1235 25.5561 32.1958 25.9054 32.1989 26.2994C32.1958 26.878 32.0481 27.3796 31.7557 27.8043C31.4664 28.226 31.0478 28.5537 30.5 28.7876C29.9553 29.0185 29.2982 29.1339 28.5288 29.1339C27.7655 29.1339 27.1007 29.0169 26.5344 28.783C25.9712 28.5491 25.5311 28.2029 25.2141 27.7443C24.9002 27.2827 24.7356 26.7118 24.7202 26.0316H26.6545C26.676 26.3486 26.7668 26.6133 26.9268 26.8256C27.09 27.0349 27.3069 27.1934 27.5778 27.3011C27.8517 27.4058 28.161 27.4581 28.5057 27.4581C28.8442 27.4581 29.1381 27.4089 29.3874 27.3104C29.6398 27.2119 29.8352 27.0749 29.9737 26.8995C30.1122 26.7241 30.1815 26.5225 30.1815 26.2947C30.1815 26.0824 30.1184 25.9039 29.9922 25.7592C29.8691 25.6146 29.6875 25.4915 29.4474 25.3899C29.2105 25.2884 28.9196 25.196 28.5749 25.1129L27.5455 24.8544C26.7483 24.6605 26.119 24.3574 25.6573 23.945C25.1957 23.5326 24.9664 22.977 24.9695 22.2784C24.9664 21.706 25.1187 21.2058 25.4265 20.7781C25.7373 20.3503 26.1636 20.0163 26.7053 19.7763C27.2469 19.5362 27.8625 19.4162 28.5518 19.4162C29.2536 19.4162 29.866 19.5362 30.3892 19.7763C30.9155 20.0163 31.3248 20.3503 31.6172 20.7781C31.9096 21.2058 32.0604 21.7013 32.0696 22.2646H30.1538ZM39.3833 19.5455H41.3822V25.6854C41.3822 26.3748 41.2175 26.978 40.8882 27.495C40.562 28.0121 40.105 28.4152 39.5171 28.7045C38.9293 28.9908 38.2445 29.1339 37.4628 29.1339C36.678 29.1339 35.9917 28.9908 35.4039 28.7045C34.816 28.4152 34.359 28.0121 34.0328 27.495C33.7065 26.978 33.5434 26.3748 33.5434 25.6854V19.5455H35.5423V25.5146C35.5423 25.8746 35.6208 26.1947 35.7778 26.4748C35.9378 26.7549 36.1625 26.9749 36.4518 27.1349C36.7411 27.295 37.0781 27.375 37.4628 27.375C37.8506 27.375 38.1876 27.295 38.4738 27.1349C38.7631 26.9749 38.9862 26.7549 39.1432 26.4748C39.3032 26.1947 39.3833 25.8746 39.3833 25.5146V19.5455ZM43.0268 29V19.5455H46.7569C47.4709 19.5455 48.0803 19.6732 48.585 19.9286C49.0929 20.181 49.4791 20.5395 49.7438 21.0043C50.0115 21.4659 50.1454 22.0091 50.1454 22.6339C50.1454 23.2617 50.01 23.8018 49.7392 24.2543C49.4683 24.7036 49.0759 25.0483 48.562 25.2884C48.0511 25.5284 47.4325 25.6484 46.7061 25.6484H44.2086V24.0419H46.383C46.7646 24.0419 47.0816 23.9896 47.334 23.8849C47.5864 23.7803 47.7741 23.6233 47.8972 23.4141C48.0234 23.2048 48.0865 22.9447 48.0865 22.6339C48.0865 22.32 48.0234 22.0553 47.8972 21.8398C47.7741 21.6244 47.5848 21.4613 47.3294 21.3505C47.077 21.2366 46.7585 21.1797 46.3738 21.1797H45.0257V29H43.0268ZM48.1326 24.6974L50.4824 29H48.2757L45.9767 24.6974H48.1326ZM53.1877 29H51.0456L54.3095 19.5455H56.8855L60.1447 29H58.0027L55.6344 21.706H55.5605L53.1877 29ZM53.0538 25.2837H58.1135V26.8441H53.0538V25.2837ZM69.1907 19.5455V29H67.4641L63.3509 23.0494H63.2816V29H61.2827V19.5455H63.0369L67.1179 25.4915H67.201V19.5455H69.1907ZM79.1842 22.8555H77.1622C77.1253 22.5939 77.0499 22.3615 76.936 22.1584C76.8221 21.9522 76.6759 21.7768 76.4974 21.6321C76.3189 21.4875 76.1127 21.3767 75.8788 21.2997C75.648 21.2228 75.3972 21.1843 75.1263 21.1843C74.637 21.1843 74.2107 21.3059 73.8476 21.549C73.4844 21.7891 73.2028 22.1399 73.0028 22.6016C72.8027 23.0601 72.7027 23.6172 72.7027 24.2727C72.7027 24.9467 72.8027 25.513 73.0028 25.9716C73.2059 26.4302 73.489 26.7764 73.8522 27.0103C74.2153 27.2442 74.6354 27.3612 75.1125 27.3612C75.3802 27.3612 75.628 27.3258 75.8557 27.255C76.0866 27.1842 76.2912 27.0811 76.4697 26.9457C76.6482 26.8072 76.796 26.6394 76.9129 26.4425C77.0329 26.2455 77.116 26.0208 77.1622 25.7685L79.1842 25.7777C79.1319 26.2116 79.0011 26.6302 78.7918 27.0334C78.5856 27.4335 78.3071 27.792 77.9562 28.109C77.6085 28.4229 77.193 28.6722 76.7098 28.8569C76.2297 29.0385 75.6865 29.1293 75.0802 29.1293C74.2369 29.1293 73.4829 28.9384 72.8181 28.5568C72.1564 28.1752 71.6332 27.6228 71.2485 26.8995C70.8669 26.1763 70.676 25.3007 70.676 24.2727C70.676 23.2417 70.8699 22.3646 71.2577 21.6413C71.6455 20.9181 72.1718 20.3672 72.8366 19.9886C73.5013 19.607 74.2492 19.4162 75.0802 19.4162C75.628 19.4162 76.1358 19.4931 76.6036 19.647C77.0745 19.8009 77.4915 20.0256 77.8547 20.321C78.2178 20.6134 78.5133 20.9719 78.741 21.3967C78.9719 21.8214 79.1196 22.3076 79.1842 22.8555ZM80.6176 29V19.5455H86.9884V21.1935H82.6166V23.4464H86.6606V25.0945H82.6166V27.3519H87.0068V29H80.6176Z" fill="white"/>
</svg>
