<svg width="99" height="47" viewBox="0 0 99 47" fill="none" xmlns="http://www.w3.org/2000/svg">
<rect x="2" y="2" width="95" height="43" rx="9" fill="#F19D38" stroke="#B87B2C" stroke-width="4"/>
<path d="M19.4205 27.2273V19.1818H21.4545V27.2273H19.4205ZM16.4148 24.2216V22.1875H24.4602V24.2216H16.4148ZM31.8807 17.3636V29H29.4205V19.6989H29.3523L26.6875 21.3693V19.1875L29.5682 17.3636H31.8807ZM48.6847 21.4375H46.196C46.1506 21.1155 46.0578 20.8295 45.9176 20.5795C45.7775 20.3258 45.5975 20.1098 45.3778 19.9318C45.1581 19.7538 44.9044 19.6174 44.6165 19.5227C44.3324 19.428 44.0237 19.3807 43.6903 19.3807C43.0881 19.3807 42.5634 19.5303 42.1165 19.8295C41.6695 20.125 41.3229 20.5568 41.0767 21.125C40.8305 21.6894 40.7074 22.375 40.7074 23.1818C40.7074 24.0114 40.8305 24.7083 41.0767 25.2727C41.3267 25.8371 41.6752 26.2633 42.1222 26.5511C42.5691 26.839 43.0862 26.983 43.6733 26.983C44.0028 26.983 44.3078 26.9394 44.5881 26.8523C44.8722 26.7652 45.1241 26.6383 45.3438 26.4716C45.5634 26.3011 45.7453 26.0947 45.8892 25.8523C46.0369 25.6098 46.1392 25.3333 46.196 25.0227L48.6847 25.0341C48.6203 25.5682 48.4593 26.0833 48.2017 26.5795C47.9479 27.072 47.6051 27.5133 47.1733 27.9034C46.7453 28.2898 46.2339 28.5966 45.6392 28.8239C45.0483 29.0473 44.3797 29.1591 43.6335 29.1591C42.5956 29.1591 41.6676 28.9242 40.8494 28.4545C40.035 27.9848 39.3911 27.3049 38.9176 26.4148C38.4479 25.5246 38.2131 24.447 38.2131 23.1818C38.2131 21.9129 38.4517 20.8333 38.929 19.9432C39.4063 19.053 40.054 18.375 40.8722 17.9091C41.6903 17.4394 42.6108 17.2045 43.6335 17.2045C44.3078 17.2045 44.9328 17.2992 45.5085 17.4886C46.0881 17.678 46.6013 17.9545 47.0483 18.3182C47.4953 18.678 47.8589 19.1193 48.1392 19.642C48.4233 20.1648 48.6051 20.7633 48.6847 21.4375ZM52.2358 29H49.5994L53.6165 17.3636H56.7869L60.7983 29H58.1619L55.2472 20.0227H55.1562L52.2358 29ZM52.071 24.4261H58.2983V26.3466H52.071V24.4261ZM62.1989 29V17.3636H66.7898C67.6686 17.3636 68.4186 17.5208 69.0398 17.8352C69.6648 18.1458 70.1402 18.5871 70.4659 19.1591C70.7955 19.7273 70.9602 20.3958 70.9602 21.1648C70.9602 21.9375 70.7936 22.6023 70.4602 23.1591C70.1269 23.7121 69.6439 24.1364 69.0114 24.4318C68.3826 24.7273 67.6212 24.875 66.7273 24.875H63.6534V22.8977H66.3295C66.7992 22.8977 67.1894 22.8333 67.5 22.7045C67.8106 22.5758 68.0417 22.3826 68.1932 22.125C68.3485 21.8674 68.4261 21.5473 68.4261 21.1648C68.4261 20.7784 68.3485 20.4527 68.1932 20.1875C68.0417 19.9223 67.8087 19.7216 67.4943 19.5852C67.1837 19.4451 66.7917 19.375 66.3182 19.375H64.6591V29H62.1989ZM68.483 23.7045L71.375 29H68.6591L65.8295 23.7045H68.483ZM76.8239 29H72.6989V17.3636H76.858C78.0284 17.3636 79.036 17.5966 79.8807 18.0625C80.7254 18.5246 81.375 19.1894 81.8295 20.0568C82.2879 20.9242 82.517 21.9621 82.517 23.1705C82.517 24.3826 82.2879 25.4242 81.8295 26.2955C81.375 27.1667 80.7216 27.8352 79.8693 28.3011C79.0208 28.767 78.0057 29 76.8239 29ZM75.1591 26.892H76.7216C77.4489 26.892 78.0606 26.7633 78.5568 26.5057C79.0568 26.2443 79.4318 25.8409 79.6818 25.2955C79.9356 24.7462 80.0625 24.0379 80.0625 23.1705C80.0625 22.3106 79.9356 21.608 79.6818 21.0625C79.4318 20.517 79.0587 20.1155 78.5625 19.858C78.0663 19.6004 77.4545 19.4716 76.7273 19.4716H75.1591V26.892Z" fill="white"/>
</svg>
