<svg width="197" height="75" viewBox="0 0 197 75" fill="none" xmlns="http://www.w3.org/2000/svg">
<rect width="197" height="75" rx="8" fill="black"/>
<path d="M14.5327 15.9925V14.0909H23.4922V15.9925H20.1523V25H17.8725V15.9925H14.5327ZM34.4945 19.5455C34.4945 20.7351 34.269 21.7472 33.818 22.5817C33.3706 23.4162 32.7598 24.0536 31.9856 24.494C31.215 24.9308 30.3485 25.1491 29.3862 25.1491C28.4167 25.1491 27.5467 24.929 26.7761 24.4886C26.0055 24.0483 25.3965 23.4109 24.949 22.5763C24.5016 21.7418 24.2779 20.7315 24.2779 19.5455C24.2779 18.3558 24.5016 17.3438 24.949 16.5092C25.3965 15.6747 26.0055 15.0391 26.7761 14.6023C27.5467 14.1619 28.4167 13.9418 29.3862 13.9418C30.3485 13.9418 31.215 14.1619 31.9856 14.6023C32.7598 15.0391 33.3706 15.6747 33.818 16.5092C34.269 17.3438 34.4945 18.3558 34.4945 19.5455ZM32.1561 19.5455C32.1561 18.7749 32.0407 18.125 31.8098 17.5959C31.5826 17.0668 31.2612 16.6655 30.8457 16.392C30.4302 16.1186 29.9437 15.9819 29.3862 15.9819C28.8287 15.9819 28.3422 16.1186 27.9267 16.392C27.5112 16.6655 27.188 17.0668 26.9572 17.5959C26.7299 18.125 26.6163 18.7749 26.6163 19.5455C26.6163 20.3161 26.7299 20.9659 26.9572 21.495C27.188 22.0241 27.5112 22.4254 27.9267 22.6989C28.3422 22.9723 28.8287 23.109 29.3862 23.109C29.9437 23.109 30.4302 22.9723 30.8457 22.6989C31.2612 22.4254 31.5826 22.0241 31.8098 21.495C32.0407 20.9659 32.1561 20.3161 32.1561 19.5455ZM35.2895 15.9925V14.0909H44.249V15.9925H40.9092V25H38.6294V15.9925H35.2895ZM46.2718 25H43.8002L47.5662 14.0909H50.5385L54.2992 25H51.8276L49.095 16.5838H49.0098L46.2718 25ZM46.1174 20.712H51.9554V22.5124H46.1174V20.712ZM55.6122 25V14.0909H57.9187V23.0984H62.5955V25H55.6122ZM65.4067 23.7322C65.0551 23.7322 64.7533 23.608 64.5012 23.3594C64.2526 23.1108 64.1283 22.8089 64.1283 22.4538C64.1283 22.1058 64.2526 21.8075 64.5012 21.5589C64.7533 21.3104 65.0551 21.1861 65.4067 21.1861C65.7476 21.1861 66.0459 21.3104 66.3016 21.5589C66.5573 21.8075 66.6851 22.1058 66.6851 22.4538C66.6851 22.6882 66.6247 22.9031 66.504 23.0984C66.3868 23.2901 66.2323 23.4446 66.0406 23.5618C65.8488 23.6754 65.6375 23.7322 65.4067 23.7322ZM65.4067 18.3789C65.0551 18.3789 64.7533 18.2546 64.5012 18.006C64.2526 17.7575 64.1283 17.4556 64.1283 17.1005C64.1283 16.7525 64.2526 16.456 64.5012 16.2109C64.7533 15.9624 65.0551 15.8381 65.4067 15.8381C65.7476 15.8381 66.0459 15.9624 66.3016 16.2109C66.5573 16.456 66.6851 16.7525 66.6851 17.1005C66.6851 17.3384 66.6247 17.555 66.504 17.7504C66.3868 17.9421 66.2323 18.0948 66.0406 18.2085C65.8488 18.3221 65.6375 18.3789 65.4067 18.3789Z" fill="white"/>
<path d="M15.0021 55V53.1165L19.4031 49.0415C19.7773 48.6793 20.0913 48.3533 20.3448 48.0636C20.6024 47.7738 20.7976 47.4901 20.9304 47.2124C21.0632 46.9306 21.1296 46.6268 21.1296 46.3008C21.1296 45.9386 21.0471 45.6267 20.8821 45.3651C20.7171 45.0994 20.4917 44.8962 20.206 44.7553C19.9202 44.6104 19.5962 44.538 19.234 44.538C18.8557 44.538 18.5257 44.6145 18.244 44.7674C17.9622 44.9203 17.7449 45.1397 17.592 45.4254C17.439 45.7112 17.3626 46.0513 17.3626 46.4457H14.8814C14.8814 45.6367 15.0645 44.9344 15.4308 44.3388C15.797 43.7431 16.3101 43.2823 16.9702 42.9563C17.6302 42.6303 18.3909 42.4673 19.2521 42.4673C20.1375 42.4673 20.9083 42.6243 21.5643 42.9382C22.2243 43.2481 22.7375 43.6787 23.1037 44.2301C23.4699 44.7815 23.6531 45.4134 23.6531 46.1257C23.6531 46.5926 23.5605 47.0534 23.3754 47.5082C23.1942 47.9629 22.8703 48.468 22.4034 49.0234C21.9366 49.5748 21.2785 50.2369 20.4293 51.0096L18.6243 52.7784V52.8629H23.8161V55H15.0021ZM34.2147 55.169C33.3132 55.169 32.5102 55.0141 31.8059 54.7042C31.1056 54.3903 30.5523 53.9596 30.1458 53.4123C29.7433 52.8609 29.536 52.225 29.524 51.5046H32.1561C32.1722 51.8065 32.2708 52.0721 32.4519 52.3015C32.637 52.5269 32.8825 52.7019 33.1884 52.8267C33.4943 52.9515 33.8384 53.0138 34.2207 53.0138C34.6191 53.0138 34.9713 52.9434 35.2772 52.8026C35.583 52.6617 35.8225 52.4665 35.9956 52.217C36.1686 51.9674 36.2551 51.6797 36.2551 51.3537C36.2551 51.0237 36.1626 50.7319 35.9775 50.4783C35.7963 50.2208 35.5347 50.0195 35.1926 49.8746C34.8546 49.7298 34.4521 49.6573 33.9853 49.6573H32.8322V47.7376H33.9853C34.3797 47.7376 34.7278 47.6692 35.0297 47.5323C35.3355 47.3955 35.573 47.2063 35.742 46.9648C35.911 46.7193 35.9956 46.4336 35.9956 46.1076C35.9956 45.7977 35.9211 45.526 35.7722 45.2926C35.6273 45.0552 35.4221 44.87 35.1564 44.7372C34.8948 44.6044 34.589 44.538 34.2388 44.538C33.8846 44.538 33.5607 44.6024 33.2669 44.7312C32.9731 44.8559 32.7376 45.035 32.5605 45.2685C32.3835 45.5019 32.2889 45.7756 32.2768 46.0895H29.7715C29.7836 45.3771 29.9868 44.7493 30.3812 44.206C30.7756 43.6626 31.3069 43.238 31.975 42.9322C32.6471 42.6223 33.4057 42.4673 34.2509 42.4673C35.1041 42.4673 35.8507 42.6223 36.4906 42.9322C37.1305 43.2421 37.6275 43.6606 37.9817 44.1879C38.3399 44.7111 38.517 45.2987 38.513 45.9506C38.517 46.6429 38.3017 47.2204 37.867 47.6832C37.4364 48.1461 36.8749 48.4399 36.1827 48.5646V48.6612C37.0923 48.7779 37.7845 49.0939 38.2594 49.609C38.7383 50.1201 38.9758 50.7601 38.9718 51.5288C38.9758 52.2331 38.7726 52.8589 38.362 53.4062C37.9556 53.9536 37.3941 54.3842 36.6777 54.6982C35.9614 55.0121 35.1403 55.169 34.2147 55.169ZM45.6984 55.2717C44.6601 55.2676 43.7666 55.0121 43.018 54.505C42.2735 53.9979 41.7 53.2634 41.2975 52.3015C40.8991 51.3396 40.7019 50.1825 40.7059 48.8303C40.7059 47.482 40.9051 46.333 41.3035 45.3832C41.706 44.4334 42.2795 43.7109 43.0241 43.2159C43.7726 42.7169 44.6641 42.4673 45.6984 42.4673C46.7327 42.4673 47.6222 42.7169 48.3667 43.2159C49.1153 43.715 49.6908 44.4394 50.0933 45.3892C50.4958 46.335 50.695 47.482 50.691 48.8303C50.691 50.1866 50.4897 51.3456 50.0873 52.3075C49.6888 53.2694 49.1173 54.0039 48.3728 54.511C47.6282 55.0181 46.7368 55.2717 45.6984 55.2717ZM45.6984 53.1044C46.4068 53.1044 46.9722 52.7482 47.3948 52.0359C47.8174 51.3235 48.0267 50.255 48.0226 48.8303C48.0226 47.8925 47.926 47.1117 47.7329 46.4879C47.5437 45.8641 47.2741 45.3952 46.9239 45.0813C46.5778 44.7674 46.1693 44.6104 45.6984 44.6104C44.9941 44.6104 44.4307 44.9626 44.0081 45.6669C43.5855 46.3712 43.3722 47.4257 43.3682 48.8303C43.3682 49.7801 43.4627 50.5729 43.6519 51.2088C43.8451 51.8407 44.1167 52.3156 44.4669 52.6335C44.817 52.9474 45.2275 53.1044 45.6984 53.1044ZM57.4025 55.2717C56.3642 55.2676 55.4707 55.0121 54.7221 54.505C53.9776 53.9979 53.4041 53.2634 53.0016 52.3015C52.6032 51.3396 52.406 50.1825 52.41 48.8303C52.41 47.482 52.6092 46.333 53.0076 45.3832C53.4101 44.4334 53.9836 43.7109 54.7282 43.2159C55.4767 42.7169 56.3682 42.4673 57.4025 42.4673C58.4368 42.4673 59.3263 42.7169 60.0708 43.2159C60.8194 43.715 61.3949 44.4394 61.7974 45.3892C62.1999 46.335 62.3991 47.482 62.3951 48.8303C62.3951 50.1866 62.1938 51.3456 61.7914 52.3075C61.3929 53.2694 60.8214 54.0039 60.0769 54.511C59.3323 55.0181 58.4409 55.2717 57.4025 55.2717ZM57.4025 53.1044C58.1109 53.1044 58.6763 52.7482 59.0989 52.0359C59.5215 51.3235 59.7308 50.255 59.7267 48.8303C59.7267 47.8925 59.6301 47.1117 59.437 46.4879C59.2478 45.8641 58.9782 45.3952 58.628 45.0813C58.2819 44.7674 57.8734 44.6104 57.4025 44.6104C56.6982 44.6104 56.1348 44.9626 55.7122 45.6669C55.2896 46.3712 55.0763 47.4257 55.0723 48.8303C55.0723 49.7801 55.1668 50.5729 55.356 51.2088C55.5492 51.8407 55.8208 52.3156 56.171 52.6335C56.5211 52.9474 56.9316 53.1044 57.4025 53.1044ZM72.3469 56.5455V41.0909H73.337V56.5455H72.3469ZM74.973 46.1921C74.9247 45.7051 74.7174 45.3268 74.3512 45.0572C73.985 44.7875 73.4879 44.6527 72.8601 44.6527C72.4335 44.6527 72.0733 44.7131 71.7795 44.8338C71.4857 44.9505 71.2603 45.1135 71.1033 45.3228C70.9504 45.5321 70.8739 45.7695 70.8739 46.0352C70.8659 46.2565 70.9122 46.4497 71.0128 46.6147C71.1174 46.7797 71.2603 46.9226 71.4414 47.0433C71.6225 47.16 71.8318 47.2627 72.0692 47.3512C72.3067 47.4357 72.5603 47.5082 72.8299 47.5685L73.9407 47.8342C74.48 47.9549 74.975 48.1159 75.4258 48.3171C75.8765 48.5183 76.2669 48.7659 76.5969 49.0597C76.927 49.3535 77.1825 49.6996 77.3636 50.098C77.5488 50.4964 77.6433 50.9532 77.6474 51.4684C77.6433 52.225 77.4502 52.881 77.0678 53.4364C76.6895 53.9878 76.1422 54.4164 75.4258 54.7223C74.7134 55.0241 73.8542 55.1751 72.848 55.1751C71.8499 55.1751 70.9806 55.0221 70.2401 54.7163C69.5036 54.4104 68.928 53.9576 68.5135 53.358C68.103 52.7543 67.8877 52.0077 67.8675 51.1183H70.397C70.4252 51.5328 70.5439 51.8789 70.7532 52.1566C70.9665 52.4303 71.2502 52.6375 71.6044 52.7784C71.9626 52.9152 72.3671 52.9837 72.8178 52.9837C73.2605 52.9837 73.6449 52.9193 73.9709 52.7905C74.3009 52.6617 74.5565 52.4826 74.7376 52.2532C74.9187 52.0238 75.0092 51.7602 75.0092 51.4624C75.0092 51.1847 74.9267 50.9512 74.7617 50.7621C74.6007 50.5729 74.3633 50.4119 74.0494 50.2791C73.7395 50.1463 73.3591 50.0256 72.9084 49.9169L71.5621 49.5788C70.5198 49.3253 69.6967 48.9289 69.093 48.3896C68.4893 47.8503 68.1895 47.1238 68.1935 46.2102C68.1895 45.4616 68.3887 44.8076 68.7912 44.2482C69.1977 43.6888 69.7551 43.2521 70.4634 42.9382C71.1718 42.6243 71.9767 42.4673 72.8782 42.4673C73.7958 42.4673 74.5967 42.6243 75.2809 42.9382C75.9691 43.2521 76.5044 43.6888 76.8867 44.2482C77.2691 44.8076 77.4663 45.4556 77.4783 46.1921H74.973Z" fill="#4994EC"/>
</svg>
